<svg width="685" height="327" viewBox="0 0 685 327" fill="none" xmlns="http://www.w3.org/2000/svg">
<rect width="685" height="327" rx="30" fill="black" fill-opacity="0.5"/>
<path d="M169.088 215V120.408H186.624V161.24L215.936 120.408H237.056L201.472 166.872L237.056 215H215.936L186.624 173.4V215H169.088ZM310.817 215H293.793V186.968H262.561V215H245.537V144.088H262.561V171.48H293.793V144.088H310.817V215ZM373.302 144.088H390.582V215H373.686V168.152L341.942 215H324.662V144.088H341.558V190.936L373.302 144.088ZM444.604 144.088V159.576H421.436V215H404.412V144.088H444.604ZM502.427 144.088H519.707V215H502.811V168.152L471.067 215H453.787V144.088H470.683V190.936L502.427 144.088Z" fill="white"/>
</svg>
