<svg width="685" height="327" viewBox="0 0 685 327" fill="none" xmlns="http://www.w3.org/2000/svg">
<rect width="685" height="327" rx="30" fill="black" fill-opacity="0.5"/>
<path d="M53.816 202V131.056H68.408C79.256 131.056 83.672 131.92 87.992 134.8C92.888 138.064 95.672 143.536 95.672 149.968C95.672 156.688 93.464 160.336 87.8 163.312C92.504 165.232 94.616 166.672 96.632 169.456C98.744 172.336 99.896 176.464 99.896 180.88C99.896 188.368 96.344 194.8 90.2 198.352C85.88 200.848 80.312 202 72.728 202H53.816ZM66.968 189.424H73.496C82.712 189.424 86.648 186.736 86.648 180.496C86.648 174.256 82.328 171.28 73.208 171.28H66.968V189.424ZM66.968 158.416H71.192C79.16 158.416 82.52 156.208 82.52 151.12C82.52 146.224 79.16 143.92 72.344 143.92H66.968V158.416ZM145.008 148.816H157.968V202H145.296V166.864L121.488 202H108.528V148.816H121.2V183.952L145.008 148.816ZM227.092 214.672H217.972L215.284 202H176.02L173.332 214.672H164.116V190.384H172.276L190.036 148.816H201.172L218.932 190.384H227.092V214.672ZM205.684 190.384L195.604 166.384L185.524 190.384H205.684ZM284.04 181.072H242.856C244.392 187.504 249.96 191.536 257.544 191.536C262.824 191.536 265.992 190.096 269.256 186.256H283.176C282.312 188.944 280.968 191.152 278.952 193.648C273.384 200.176 266.568 203.248 257.832 203.248C241.608 203.248 229.032 191.152 229.032 175.6C229.032 159.952 241.416 147.568 257.064 147.568C272.904 147.568 284.52 159.664 284.52 176.176C284.52 178.096 284.424 179.248 284.04 181.072ZM242.472 169.84H271.944C270.312 163.024 265.128 159.28 257.256 159.28C249.672 159.28 244.488 162.928 242.472 169.84ZM318.388 147.568C333.844 147.568 346.42 160.144 346.42 175.504C346.42 190.768 333.748 203.248 318.196 203.248C302.548 203.248 289.876 190.768 289.876 175.504C289.876 159.952 302.452 147.568 318.388 147.568ZM317.908 159.28C309.652 159.28 302.74 166.576 302.74 175.408C302.74 184.336 309.652 191.536 318.1 191.536C326.644 191.536 333.556 184.336 333.556 175.504C333.556 166.384 326.644 159.28 317.908 159.28ZM356.23 219.76L366.214 197.008L346.726 148.816H361.318L373.126 183.28L385.99 148.816H400.677L369.958 219.76H356.23ZM406.184 219.76V148.816H417.896V155.056C422.024 150.16 428.168 147.568 435.368 147.568C450.728 147.568 461.864 159.184 461.864 175.216C461.864 191.344 450.632 203.248 435.272 203.248C428.744 203.248 423.848 201.328 418.952 197.008V219.76H406.184ZM433.448 159.28C424.808 159.28 418.184 166.288 418.184 175.6C418.184 184.624 425 191.536 433.832 191.536C442.376 191.536 449 184.528 449 175.504C449 166.192 442.472 159.28 433.448 159.28ZM495.763 147.568C511.219 147.568 523.795 160.144 523.795 175.504C523.795 190.768 511.123 203.248 495.571 203.248C479.923 203.248 467.251 190.768 467.251 175.504C467.251 159.952 479.827 147.568 495.763 147.568ZM495.283 159.28C487.027 159.28 480.115 166.576 480.115 175.408C480.115 184.336 487.027 191.536 495.475 191.536C504.019 191.536 510.931 184.336 510.931 175.504C510.931 166.384 504.019 159.28 495.283 159.28ZM531.622 202V148.816H544.39V173.296L562.822 148.816H578.278L557.062 175.216L579.43 202H562.822L544.39 177.52V202H531.622ZM621.258 148.816H634.218V202H621.546V166.864L597.738 202H584.778V148.816H597.45V183.952L621.258 148.816Z" fill="white"/>
</svg>
