<svg width="685" height="327" viewBox="0 0 685 327" fill="none" xmlns="http://www.w3.org/2000/svg">
<rect width="685" height="327" rx="30" fill="black" fill-opacity="0.5"/>
<path d="M66.816 202V131.056H117.12V202H103.968V143.632H79.968V202H66.816ZM129.122 219.76V148.816H140.834V155.056C144.962 150.16 151.106 147.568 158.306 147.568C173.666 147.568 184.802 159.184 184.802 175.216C184.802 191.344 173.57 203.248 158.21 203.248C151.682 203.248 146.786 201.328 141.89 197.008V219.76H129.122ZM156.386 159.28C147.746 159.28 141.122 166.288 141.122 175.6C141.122 184.624 147.938 191.536 156.77 191.536C165.314 191.536 171.938 184.528 171.938 175.504C171.938 166.192 165.41 159.28 156.386 159.28ZM218.7 147.568C234.156 147.568 246.732 160.144 246.732 175.504C246.732 190.768 234.06 203.248 218.508 203.248C202.86 203.248 190.188 190.768 190.188 175.504C190.188 159.952 202.764 147.568 218.7 147.568ZM218.22 159.28C209.964 159.28 203.052 166.576 203.052 175.408C203.052 184.336 209.964 191.536 218.412 191.536C226.956 191.536 233.868 184.336 233.868 175.504C233.868 166.384 226.956 159.28 218.22 159.28ZM284.703 148.816V160.432H267.327V202H254.559V148.816H284.703ZM291.59 219.76V148.816H303.302V155.056C307.43 150.16 313.574 147.568 320.774 147.568C336.134 147.568 347.27 159.184 347.27 175.216C347.27 191.344 336.038 203.248 320.678 203.248C314.15 203.248 309.254 201.328 304.358 197.008V219.76H291.59ZM318.854 159.28C310.214 159.28 303.59 166.288 303.59 175.6C303.59 184.624 310.406 191.536 319.238 191.536C327.782 191.536 334.406 184.528 334.406 175.504C334.406 166.192 327.878 159.28 318.854 159.28ZM408.817 148.816V202H397.105V195.088C392.017 200.944 386.929 203.248 379.441 203.248C363.889 203.248 352.657 191.632 352.657 175.6C352.657 159.376 363.985 147.568 379.729 147.568C387.409 147.568 392.689 150.064 397.105 155.92V148.816H408.817ZM380.881 159.28C371.953 159.28 365.521 166.288 365.521 175.888C365.521 185.2 371.953 191.536 381.265 191.536C390.481 191.536 396.721 185.104 396.721 175.6C396.721 166 390.193 159.28 380.881 159.28ZM453.552 190.96H446.064L431.952 166.864V202H419.184V148.816H433.776L449.808 176.08L465.84 148.816H480.432V202H467.664V166.864L453.552 190.96ZM525.177 190.96H517.689L503.577 166.864V202H490.809V148.816H505.401L521.433 176.08L537.465 148.816H552.057V202H539.289V166.864L525.177 190.96ZM575.202 178.672V190.384H584.994C588.834 190.384 591.426 187.888 591.426 184.528C591.426 181.168 588.834 178.672 584.994 178.672H575.202ZM585.858 167.056C596.898 167.056 604.29 175.12 604.29 184.528C604.29 193.936 596.898 202 585.858 202H562.434V148.816H575.202V167.056H585.858ZM609.09 202V148.816H621.858V202H609.09Z" fill="white"/>
</svg>
