<svg width="685" height="327" viewBox="0 0 685 327" fill="none" xmlns="http://www.w3.org/2000/svg">
<rect width="685" height="327" rx="30" fill="black" fill-opacity="0.5"/>
<path d="M101.816 202V131.056H116.408C127.256 131.056 131.672 131.92 135.992 134.8C140.888 138.064 143.672 143.536 143.672 149.968C143.672 156.688 141.464 160.336 135.8 163.312C140.504 165.232 142.616 166.672 144.632 169.456C146.744 172.336 147.896 176.464 147.896 180.88C147.896 188.368 144.344 194.8 138.2 198.352C133.88 200.848 128.312 202 120.728 202H101.816ZM114.968 189.424H121.496C130.712 189.424 134.648 186.736 134.648 180.496C134.648 174.256 130.328 171.28 121.208 171.28H114.968V189.424ZM114.968 158.416H119.192C127.16 158.416 130.52 156.208 130.52 151.12C130.52 146.224 127.16 143.92 120.344 143.92H114.968V158.416ZM209.04 181.072H167.856C169.392 187.504 174.96 191.536 182.544 191.536C187.824 191.536 190.992 190.096 194.256 186.256H208.176C207.312 188.944 205.968 191.152 203.952 193.648C198.384 200.176 191.568 203.248 182.832 203.248C166.608 203.248 154.032 191.152 154.032 175.6C154.032 159.952 166.416 147.568 182.064 147.568C197.904 147.568 209.52 159.664 209.52 176.176C209.52 178.096 209.424 179.248 209.04 181.072ZM167.472 169.84H196.944C195.312 163.024 190.128 159.28 182.256 159.28C174.672 159.28 169.488 162.928 167.472 169.84ZM243.484 160.048C235.228 160.048 228.316 167.056 228.316 175.696C228.316 184.624 235.228 191.536 243.676 191.536C252.22 191.536 259.132 184.624 259.132 175.792C259.132 166.96 252.22 160.048 243.484 160.048ZM243.868 148.624C259.324 148.624 271.996 160.72 271.996 175.792C271.996 191.056 259.324 203.248 243.772 203.248C234.364 203.248 225.532 199.12 220.444 190.768C216.124 183.664 215.932 173.008 215.932 162.16C215.932 140.752 225.34 128.944 245.308 127.408L268.444 125.584V137.008L245.788 138.928C232.06 140.08 225.532 146.608 225.436 158.704L225.628 158.8C227.74 154.672 234.748 148.624 243.868 148.624ZM316.383 148.816H329.343V202H316.671V166.864L292.863 202H279.903V148.816H292.575V183.952L316.383 148.816ZM388.675 202H375.907V180.976H352.483V202H339.715V148.816H352.483V169.36H375.907V148.816H388.675V202ZM452.723 148.816V202H441.011V195.088C435.923 200.944 430.835 203.248 423.347 203.248C407.795 203.248 396.563 191.632 396.563 175.6C396.563 159.376 407.891 147.568 423.635 147.568C431.315 147.568 436.595 150.064 441.011 155.92V148.816H452.723ZM424.787 159.28C415.859 159.28 409.427 166.288 409.427 175.888C409.427 185.2 415.859 191.536 425.171 191.536C434.387 191.536 440.627 185.104 440.627 175.6C440.627 166 434.099 159.28 424.787 159.28ZM463.09 219.76V148.816H474.802V155.056C478.93 150.16 485.074 147.568 492.274 147.568C507.634 147.568 518.77 159.184 518.77 175.216C518.77 191.344 507.538 203.248 492.178 203.248C485.65 203.248 480.754 201.328 475.858 197.008V219.76H463.09ZM490.354 159.28C481.714 159.28 475.09 166.288 475.09 175.6C475.09 184.624 481.906 191.536 490.738 191.536C499.282 191.536 505.906 184.528 505.906 175.504C505.906 166.192 499.378 159.28 490.354 159.28ZM539.421 178.672V190.384H549.213C553.053 190.384 555.645 187.888 555.645 184.528C555.645 181.168 553.053 178.672 549.213 178.672H539.421ZM550.077 167.056C561.117 167.056 568.509 175.12 568.509 184.528C568.509 193.936 561.117 202 550.077 202H526.653V148.816H539.421V167.056H550.077ZM573.309 202V148.816H586.077V202H573.309Z" fill="white"/>
</svg>
