<svg width="481" height="550" viewBox="0 0 481 550" fill="none" xmlns="http://www.w3.org/2000/svg">
<rect x="0.461426" width="495" height="550" rx="35.75" fill="#1A0E01"/>
<path d="M54.7638 82.0001L68.0694 50.0753H72.735L86.127 82.0001H79.6038L76.191 73.7489H64.8294L61.287 82.0001H54.7638ZM66.9894 68.0897H73.815L70.4022 58.4129L66.9894 68.0897ZM110.804 82.0001H105.059V72.5393H94.518V82.0001H88.7724V58.0673H94.518V67.3121H105.059V58.0673H110.804V82.0001ZM139.626 58.0673V82.0001H134.355V78.8897C132.066 81.5249 129.776 82.5617 126.407 82.5617C119.408 82.5617 114.354 77.3345 114.354 70.1201C114.354 62.8193 119.451 57.5057 126.536 57.5057C129.992 57.5057 132.368 58.6289 134.355 61.2641V58.0673H139.626ZM127.055 62.7761C123.037 62.7761 120.143 65.9297 120.143 70.2497C120.143 74.4401 123.037 77.2913 127.227 77.2913C131.375 77.2913 134.183 74.3969 134.183 70.1201C134.183 65.8001 131.245 62.7761 127.055 62.7761ZM166.539 82.0001H160.405L154.313 66.1025L148.222 82.0001H142.088L152.067 58.0673H156.56L166.539 82.0001ZM185.429 58.0673H191.261V82.0001H185.559V66.1889L174.845 82.0001H169.013V58.0673H174.715V73.8785L185.429 58.0673ZM211.265 63.2945H205.692V82.0001H199.946V63.2945H194.373V58.0673H211.265V63.2945ZM230.781 58.0673H236.613V82.0001H230.91V66.1889L220.197 82.0001H214.365V58.0673H220.067V73.8785L230.781 58.0673ZM241.28 82.0001V58.0673H247.026V69.0833L255.32 58.0673H262.275L252.728 69.9473L262.794 82.0001H255.32L247.026 70.9841V82.0001H241.28ZM303.747 87.7025H299.643L298.433 82.0001H280.764L279.555 87.7025H275.407V76.7729H279.079L287.071 58.0673H292.083L300.075 76.7729H303.747V87.7025ZM294.113 76.7729L289.577 65.9729L285.041 76.7729H294.113ZM329.891 58.0673V82.0001H324.621V78.8897C322.331 81.5249 320.042 82.5617 316.672 82.5617C309.674 82.5617 304.619 77.3345 304.619 70.1201C304.619 62.8193 309.717 57.5057 316.802 57.5057C320.258 57.5057 322.634 58.6289 324.621 61.2641V58.0673H329.891ZM317.32 62.7761C313.303 62.7761 310.408 65.9297 310.408 70.2497C310.408 74.4401 313.303 77.2913 317.493 77.2913C321.64 77.2913 324.448 74.3969 324.448 70.1201C324.448 65.8001 321.511 62.7761 317.32 62.7761ZM356.589 82.0001H350.843V72.5393H340.302V82.0001H334.557V58.0673H340.302V67.3121H350.843V58.0673H356.589V82.0001ZM383.293 82.0001H377.548V72.5393H367.007V82.0001H361.261V58.0673H367.007V67.3121H377.548V58.0673H383.293V82.0001ZM393.712 71.5025V76.7729H398.118C399.846 76.7729 401.013 75.6497 401.013 74.1377C401.013 72.6257 399.846 71.5025 398.118 71.5025H393.712ZM398.507 66.2753C403.475 66.2753 406.801 69.9041 406.801 74.1377C406.801 78.3713 403.475 82.0001 398.507 82.0001H387.966V58.0673H393.712V66.2753H398.507ZM408.961 82.0001V58.0673H414.707V82.0001H408.961ZM417.15 82.0001L425.618 69.6449L418.274 58.0673H424.754L429.074 65.2817L433.307 58.0673H439.787L432.486 69.6449L440.997 82.0001H434.085L429.074 73.7921L424.062 82.0001H417.15Z" fill="white"/>
<g clip-path="url(#clip0_759_372)">
<path d="M282.611 138.6L296.111 141.6L307.061 145.5L315.911 150L322.661 154.8L327.761 159.9L331.511 165L333.911 169.95L335.411 174.45L336.011 178.35L336.311 181.35L336.161 183.3V263.4L335.411 272.85L333.461 281.1L330.311 288L326.411 293.7L321.911 298.35L316.961 302.1L311.711 304.95L306.461 307.05L301.511 308.55L297.011 309.6L293.111 310.2L289.961 310.5H200.411L190.061 311.25L181.211 313.35L173.711 316.65L167.561 320.7L162.611 325.5L158.561 330.75L155.561 336.15L153.311 341.7L151.811 346.95L150.761 351.75L150.161 355.8L149.861 358.95V404.85H116.411L113.261 404.4L109.061 403.35L104.261 401.55L99.0114 398.85L93.6114 394.95L88.2114 389.55L82.9614 382.65L78.1614 373.8L73.9614 362.85L70.8114 349.65L68.7114 333.9L67.9614 315.45L68.8614 297.15L71.2614 281.55L74.8614 268.5L79.6614 257.85L85.0614 249.3L91.0614 242.7L97.3614 237.75L103.661 234.15L109.661 231.75L115.061 230.25L119.861 229.5L123.461 229.35H125.861L126.761 229.5H249.161V217.05H161.561L161.411 175.8L161.111 170.25L161.861 165.15L163.511 160.5L166.061 156.3L169.811 152.4L174.461 148.95L180.161 145.95L186.761 143.25L194.411 141L203.111 139.2L212.711 137.7L223.361 136.8L234.911 136.2L247.511 135.9L266.561 136.65L282.611 138.6ZM188.111 168.3L184.661 173.25L183.461 179.4L184.661 185.55L188.111 190.65L193.061 193.95L199.211 195.3L205.361 193.95L210.311 190.65L213.761 185.55L214.961 179.4L213.761 173.25L210.311 168.3L205.361 165L199.211 163.65L193.061 165L188.111 168.3ZM384.461 227.55L388.661 228.45L393.461 230.25L398.711 232.95L404.111 237L409.511 242.25L414.761 249.3L419.561 258.15L423.761 269.1L426.911 282.3L429.011 297.9L429.761 316.35L428.861 334.8L426.461 350.4L422.861 363.3L418.061 373.95L412.661 382.5L406.661 389.25L400.361 394.2L394.061 397.8L388.061 400.2L382.661 401.55L377.861 402.3L374.261 402.6L371.861 402.45H248.561V414.75H336.161L336.311 456.15L336.611 461.55L335.861 466.65L334.211 471.3L331.661 475.65L327.911 479.4L323.261 483L317.561 486L310.961 488.55L303.311 490.8L294.611 492.75L285.011 494.1L274.361 495.15L262.811 495.75L250.211 495.9L231.161 495.3L215.111 493.2L201.611 490.2L190.661 486.45L181.811 481.95L175.061 477L169.961 471.9L166.211 466.8L163.811 461.85L162.311 457.35L161.711 453.6L161.411 450.6L161.561 448.65V368.55L162.311 358.95L164.261 350.85L167.411 343.95L171.311 338.25L175.811 333.45L180.761 329.85L186.011 326.85L191.261 324.75L196.211 323.25L200.711 322.35L204.611 321.75L207.761 321.45L209.711 321.3H297.311L307.661 320.55L316.511 318.45L324.011 315.3L330.161 311.1L335.111 306.3L339.161 301.05L342.161 295.65L344.411 290.25L345.911 285L346.961 280.2L347.561 276L347.861 272.85V226.95H379.211L381.311 227.1L384.461 227.55ZM287.411 441.3L283.961 446.25L282.761 452.4L283.961 458.55L287.411 463.5L292.361 466.95L298.511 468.15L304.661 466.95L309.611 463.5L313.061 458.55L314.261 452.4L313.061 446.25L309.611 441.3L304.661 437.85L298.511 436.65L292.361 437.85L287.411 441.3Z" fill="white"/>
</g>
<defs>
<clipPath id="clip0_759_372">
<rect width="360" height="360" fill="white" transform="translate(67.9614 135.9)"/>
</clipPath>
</defs>
</svg>
