<svg width="1920" height="941" viewBox="0 0 1920 941" fill="none" xmlns="http://www.w3.org/2000/svg">
<g opacity="0.5" clip-path="url(#clip0_597_2048)">
<path d="M73.9536 888.101L104.686 895.467L147.967 781.438L102.61 770.565L73.9536 888.101Z" fill="#A0616A"/>
<path d="M59.4023 915.464L68.8394 876.757L128.966 891.171C139.085 893.608 147.815 899.926 153.242 908.738C158.669 917.55 160.349 928.137 157.913 938.176L157.705 939.028L59.4023 915.464Z" fill="#2F2E41"/>
<path d="M209.998 908.86L241.616 908.858L256.655 787.936L209.994 787.938L209.998 908.86Z" fill="#A0616A"/>
<path d="M202.34 899.025L264.199 899.022C274.616 899.022 284.607 903.125 291.973 910.428C299.338 917.732 303.477 927.637 303.477 937.965V938.842L202.342 938.847L202.34 899.025Z" fill="#2F2E41"/>
<path d="M202.579 867.017L207.777 678.895L200.775 602.613L187.113 661.317L127.411 854.363L75.9434 840.933L135.55 632.784L122.604 499.276L159.799 475.568L160.301 475.658L287.379 498.884L256.681 861.653L202.579 867.017Z" fill="#2F2E41"/>
<path d="M252.873 525.075C242.639 525.075 230.671 521.806 217.349 512.481C174.717 482.647 123.885 514.741 123.376 515.066L121.312 516.397L121.384 513.957C121.436 512.219 126.542 339.448 126.542 283.852C126.542 226.414 164.335 184.476 175.918 172.992C187.287 161.717 196.853 161.967 208.963 162.279C211.05 162.331 213.225 162.389 215.513 162.389C231.339 162.389 246.724 177.464 247.372 178.106L247.681 178.413L247.738 178.843L291.651 506.69L291.315 507.112C291.111 507.369 276.691 525.075 252.873 525.075Z" fill="#CCCCCC"/>
<path d="M277.813 110.354C294.593 79.9178 283.312 41.7569 252.617 25.1191C221.922 8.4813 183.436 19.6669 166.657 50.1029C149.878 80.5389 161.159 118.7 191.853 135.338C222.548 151.975 261.034 140.79 277.813 110.354Z" fill="#A0616A"/>
<path d="M319.198 577.569C316.201 575.267 313.75 572.341 312.017 568.997C310.284 565.653 309.312 561.974 309.169 558.217C309.025 554.461 309.714 550.719 311.187 547.255C312.66 543.791 314.881 540.689 317.693 538.168L281.723 454.038L328.821 462.633L355.758 541.207C359.716 546.173 361.699 552.405 361.332 558.724C360.965 565.043 358.273 571.008 353.767 575.49C349.26 579.972 343.252 582.66 336.881 583.043C330.509 583.426 324.218 581.479 319.198 577.569Z" fill="#A0616A"/>
<path d="M309.009 529.68L244.013 398.207L215.514 299.255L215.536 213.294C215.601 212.955 222.3 179.517 247.133 181.829C269.65 183.992 281.778 194.91 287.684 218.336C292.701 238.236 285.839 297.275 285.175 302.846C289.532 313.09 354.9 467.524 344.078 486.121C343.673 486.845 343.083 487.452 342.367 487.879L353.95 512.127L309.009 529.68Z" fill="#CCCCCC"/>
<path d="M214.136 103.89C221.729 104.87 227.457 97.1667 230.113 90.046C232.77 82.9252 234.794 74.6352 241.395 70.7887C250.414 65.5337 261.954 71.8541 272.267 70.1203C283.915 68.1623 291.488 55.9224 292.081 44.2233C292.675 32.5241 287.98 21.272 283.373 10.4854L281.764 23.8907C281.979 19.3473 281.015 14.8252 278.964 10.757C276.913 6.68869 273.843 3.21031 270.049 0.654541L272.122 20.3246C271.681 17.6108 270.703 15.0102 269.246 12.6718C267.789 10.3335 265.88 8.30351 263.629 6.69847C261.379 5.09342 258.831 3.94488 256.131 3.31874C253.432 2.69261 250.635 2.6012 247.899 3.0498L248.226 14.77C234.773 13.1838 221.203 11.5954 207.71 12.8038C194.218 14.0123 180.631 18.2452 170.405 27.0561C155.108 40.236 149.521 61.9381 151.397 81.9459C153.272 101.954 161.602 120.75 170.283 138.907C172.467 143.475 175.488 148.63 180.553 149.212C185.104 149.735 189.268 145.963 190.682 141.642C191.772 137.209 191.73 132.576 190.56 128.163C189.28 121.419 187.666 114.526 188.87 107.769C190.073 101.011 194.976 94.3329 201.846 93.5047C208.716 92.6766 215.746 100.463 212.443 106.493L214.136 103.89Z" fill="#2F2E41"/>
<path d="M1781.93 569.194C1779.82 566.805 1778.26 563.985 1777.36 560.933C1776.47 557.881 1776.26 554.671 1776.75 551.53C1777.24 548.389 1778.42 545.393 1780.2 542.752C1781.98 540.112 1784.33 537.892 1787.07 536.248L1770.86 460.675L1808.57 475.322L1818.18 544.842C1820.66 549.595 1821.29 555.085 1819.96 560.271C1818.63 565.458 1815.43 569.98 1810.96 572.982C1806.5 575.984 1801.07 577.256 1795.72 576.558C1790.37 575.86 1785.46 573.24 1781.93 569.194Z" fill="#FFB8B8"/>
<path d="M1777.65 510.228L1777.45 509.485C1757.07 434.738 1736 357.47 1710.28 273.338L1710.11 272.787L1710.68 272.459C1725.01 264.164 1746.56 264.716 1760.8 273.743C1767.24 277.859 1772.26 283.839 1775.16 290.874C1778.06 297.91 1778.72 305.66 1777.03 313.075L1795.79 410.062C1803.42 441.766 1811.31 474.582 1818.85 506.939L1819.07 507.856L1817.9 507.93C1804.16 508.796 1789.97 509.692 1778.6 510.186L1777.65 510.228Z" fill="#CCCCCC"/>
<path d="M1604.44 912.522H1577.71L1564.99 810.281H1604.44V912.522Z" fill="#FFB8B8"/>
<path d="M1611.26 938.217H1525.06V937.136C1525.07 928.316 1528.61 919.86 1534.9 913.623C1541.19 907.386 1549.72 903.878 1558.62 903.868H1611.26L1611.26 938.217Z" fill="#2F2E41"/>
<path d="M1856.35 890.656L1830.88 898.704L1787.45 805.118L1825.04 793.239L1856.35 890.656Z" fill="#FFB8B8"/>
<path d="M1788.58 939.035L1788.25 938.004C1785.56 929.597 1786.34 920.475 1790.43 912.639C1794.51 904.803 1801.56 898.893 1810.03 896.206L1860.19 880.357L1870.71 913.085L1788.58 939.035Z" fill="#2F2E41"/>
<path d="M1721.04 204.841C1750.62 204.841 1774.6 181.065 1774.6 151.737C1774.6 122.408 1750.62 98.6323 1721.04 98.6323C1691.46 98.6323 1667.49 122.408 1667.49 151.737C1667.49 181.065 1691.46 204.841 1721.04 204.841Z" fill="#FFB8B8"/>
<path d="M1745.09 141.895C1745.39 120.476 1736.35 99.2631 1722.37 88.598C1715.79 83.4228 1707.59 80.6744 1699.19 80.8217C1690.79 80.9689 1682.69 84.0027 1676.29 89.4054C1662.53 100.557 1653.92 122.079 1654.65 143.479C1685.48 143.566 1716.31 143.653 1745.09 141.895Z" fill="#2F2E41"/>
<path d="M1619.71 879.612L1618.63 879.508C1595.38 877.245 1571.33 874.907 1548.6 874.639L1547.36 874.624L1547.53 873.41C1552.92 834.739 1555.2 794.537 1557.41 755.656C1559.59 717.266 1561.84 677.569 1567.09 639.867C1569.31 629.771 1571.48 619.795 1573.63 609.856C1591.48 527.602 1608.34 449.908 1643.14 373.001L1643.47 372.275L1644.27 372.37C1676.92 376.288 1708.29 388.101 1732.61 405.631L1733.08 405.97L1733.06 406.547C1732.59 418.493 1732.11 430.842 1732.82 442.091C1743.86 457.297 1751.17 474.843 1754.19 493.339C1757.2 511.834 1755.82 530.771 1750.17 548.648C1759.74 580.378 1769.64 613.177 1779.74 645.532C1804.27 712.209 1829.65 781.209 1855.67 851.153L1856.1 852.3L1854.9 852.579C1836.18 856.937 1816.87 861.43 1797.82 863.174L1797.1 863.239L1796.75 862.608C1748.18 772.966 1708.67 678.773 1678.81 581.409C1672.31 601.068 1662.95 618.813 1653.87 636.001C1645.2 651.634 1637.56 667.814 1631.02 684.437C1627 717.131 1625.94 752.552 1624.91 786.807C1623.93 819.194 1623.01 849.785 1619.82 878.55L1619.71 879.612Z" fill="#2F2E41"/>
<path d="M1702.76 89.5803C1725.97 84.621 1751.65 89.3391 1769.88 104.87C1788.11 120.4 1797.37 147.267 1789.88 170.309C1782.39 193.351 1756.96 209.563 1733.97 203.613C1740.56 185.208 1733.15 162.611 1717.05 152.01C1697.95 139.437 1692.7 109.422 1702.76 89.5803Z" fill="#2F2E41"/>
<path d="M1730.94 407.94L1730.09 407.557C1700.48 394.16 1671.44 383.88 1644.23 374.501L1643.4 374.323L1643.4 371.924L1643.94 372.111C1644.05 371.862 1644.18 371.579 1644.31 371.297C1644.68 370.482 1644.93 369.927 1645.15 369.559L1645.14 369.556C1647.41 364.973 1649.22 360.544 1650.96 356.261C1652.76 351.841 1654.62 347.277 1657.02 342.448C1651.2 336.663 1647.22 329.317 1645.56 321.314C1643.9 313.312 1644.64 305.003 1647.69 297.414C1653.7 283.289 1669.03 272.288 1685.13 270.463C1691.03 254.358 1704.17 220.517 1704.17 220.517C1704.17 220.517 1731.82 219.765 1742.94 218.366L1743.12 218.343L1743.31 218.383C1767.58 223.656 1787.84 246.429 1792.58 273.763C1796.59 296.833 1790.51 323.221 1775.47 348.067C1767.76 360.217 1759.23 371.838 1749.94 382.853C1743.17 391.25 1736.77 399.181 1731.46 407.168L1730.94 407.94Z" fill="#CCCCCC"/>
<path d="M1784.55 121.049C1768.3 118.644 1755.54 102.173 1757.39 85.9844C1759.23 69.7959 1775.38 56.5677 1791.76 57.8233C1808.14 59.079 1822.05 74.6109 1821.37 90.8886C1820.68 107.166 1805.3 124.12 1784.55 121.049Z" fill="#2F2E41"/>
<path d="M1782.01 110.553C1765.76 108.147 1753 91.6761 1754.85 75.4877C1755.65 69.9814 1757.85 64.767 1761.24 60.3306C1764.63 55.8942 1769.09 52.3803 1774.22 50.1163C1761.11 52.9605 1749.83 64.2837 1748.31 77.6498C1746.46 93.8382 1759.22 110.309 1775.47 112.715C1781.52 113.657 1787.73 112.797 1793.29 110.243C1789.58 111.016 1785.76 111.121 1782.01 110.553Z" fill="#2F2E41"/>
<path d="M1466.8 395.906C1468.36 393.134 1470.53 390.736 1473.13 388.881C1475.73 387.027 1478.71 385.761 1481.86 385.173C1485.01 384.585 1488.26 384.689 1491.36 385.477C1494.47 386.266 1497.36 387.72 1499.84 389.737L1566.3 349.402L1564.93 389.53L1502.03 421.681C1498.34 425.583 1493.33 428.005 1487.95 428.49C1482.58 428.975 1477.21 427.488 1472.87 424.311C1468.52 421.134 1465.51 416.488 1464.39 411.253C1463.27 406.017 1464.13 400.557 1466.8 395.906Z" fill="#FFB8B8"/>
<path d="M1521.44 372.257L1522.08 371.82C1586.36 327.862 1652.82 282.421 1724.25 230.343L1724.71 230.001L1725.22 230.423C1737.88 241.062 1744.53 261.391 1740.7 277.709C1738.93 285.106 1734.91 291.786 1729.19 296.844C1723.47 301.903 1716.32 305.095 1708.7 305.989L1622.73 355.842C1595.12 373.536 1566.55 391.849 1538.3 409.683L1537.5 410.188L1537.04 409.121C1531.64 396.567 1526.06 383.599 1521.8 373.134L1521.44 372.257Z" fill="#CCCCCC"/>
<path d="M624.962 940.633H-205.819C-206.398 940.633 -206.952 940.405 -207.361 940C-207.77 939.594 -208 939.044 -208 938.471C-208 937.897 -207.77 937.347 -207.361 936.942C-206.952 936.536 -206.398 936.309 -205.819 936.309H624.962C625.541 936.309 626.095 936.536 626.504 936.942C626.913 937.347 627.143 937.897 627.143 938.471C627.143 939.044 626.913 939.594 626.504 940C626.095 940.405 625.541 940.633 624.962 940.633Z" fill="#3F3D56"/>
<path d="M2096.82 940.633H1266.04C1265.46 940.633 1264.91 940.405 1264.5 940C1264.09 939.594 1263.86 939.044 1263.86 938.471C1263.86 937.897 1264.09 937.347 1264.5 936.942C1264.91 936.536 1265.46 936.309 1266.04 936.309H2096.82C2097.4 936.309 2097.95 936.536 2098.36 936.942C2098.77 937.347 2099 937.897 2099 938.471C2099 939.044 2098.77 939.594 2098.36 940C2097.95 940.405 2097.4 940.633 2096.82 940.633Z" fill="#3F3D56"/>
<path d="M73.9526 888.101L104.685 895.467L147.966 781.438L102.609 770.565L73.9526 888.101Z" fill="#A0616A"/>
<path d="M59.4023 915.464L68.8394 876.757L128.966 891.171C139.085 893.608 147.815 899.926 153.242 908.738C158.669 917.55 160.349 928.137 157.913 938.176L157.705 939.028L59.4023 915.464Z" fill="#2F2E41"/>
<path d="M209.998 908.86L241.616 908.858L256.655 787.936L209.994 787.938L209.998 908.86Z" fill="#A0616A"/>
<path d="M202.34 899.025L264.199 899.023C274.616 899.023 284.607 903.126 291.973 910.429C299.338 917.732 303.477 927.637 303.477 937.966V938.843L202.342 938.847L202.34 899.025Z" fill="#2F2E41"/>
<path d="M202.579 867.017L207.777 678.895L200.775 602.613L187.113 661.317L127.411 854.363L75.9434 840.933L135.55 632.784L122.604 499.276L159.799 475.568L160.301 475.658L287.379 498.884L256.681 861.653L202.579 867.017Z" fill="#2F2E41"/>
<path d="M252.874 525.075C242.64 525.075 230.672 521.806 217.35 512.481C174.718 482.647 123.886 514.741 123.377 515.066L121.313 516.397L121.385 513.957C121.437 512.219 126.543 339.448 126.543 283.852C126.543 226.414 164.336 184.476 175.919 172.992C187.288 161.717 196.854 161.967 208.964 162.279C211.051 162.331 213.226 162.389 215.514 162.389C231.339 162.389 246.725 177.464 247.373 178.106L247.682 178.413L247.739 178.843L291.652 506.69L291.316 507.112C291.112 507.369 276.692 525.075 252.874 525.075Z" fill="#CCCCCC"/>
<path d="M277.813 110.354C294.593 79.9175 283.312 41.7567 252.617 25.1189C221.922 8.48105 183.436 19.6666 166.657 50.1026C149.878 80.5386 161.159 118.7 191.853 135.337C222.548 151.975 261.034 140.79 277.813 110.354Z" fill="#A0616A"/>
<path d="M319.198 577.569C316.201 575.267 313.75 572.341 312.017 568.997C310.284 565.653 309.312 561.974 309.169 558.217C309.025 554.461 309.714 550.719 311.187 547.255C312.66 543.791 314.881 540.689 317.693 538.168L281.723 454.038L328.821 462.633L355.758 541.207C359.716 546.173 361.699 552.405 361.332 558.724C360.965 565.043 358.273 571.008 353.767 575.49C349.26 579.972 343.252 582.66 336.881 583.043C330.509 583.426 324.218 581.479 319.198 577.569Z" fill="#A0616A"/>
<path d="M309.009 529.68L244.013 398.207L215.514 299.255L215.536 213.294C215.601 212.955 222.3 179.517 247.133 181.829C269.65 183.992 281.778 194.91 287.684 218.336C292.701 238.236 285.839 297.275 285.175 302.846C289.532 313.09 354.9 467.524 344.078 486.121C343.673 486.845 343.083 487.452 342.367 487.879L353.95 512.127L309.009 529.68Z" fill="#CCCCCC"/>
<path d="M214.136 103.89C221.729 104.87 227.457 97.1667 230.113 90.046C232.77 82.9252 234.794 74.6352 241.395 70.7887C250.414 65.5337 261.954 71.8541 272.267 70.1203C283.915 68.1623 291.488 55.9224 292.081 44.2233C292.675 32.5241 287.98 21.272 283.373 10.4854L281.764 23.8907C281.979 19.3473 281.015 14.8252 278.964 10.757C276.913 6.68869 273.843 3.21031 270.049 0.654541L272.122 20.3246C271.681 17.6108 270.703 15.0102 269.246 12.6718C267.789 10.3335 265.88 8.30351 263.629 6.69847C261.379 5.09342 258.831 3.94488 256.131 3.31874C253.432 2.69261 250.635 2.6012 247.899 3.0498L248.226 14.77C234.773 13.1838 221.203 11.5954 207.71 12.8038C194.218 14.0123 180.631 18.2452 170.405 27.0561C155.108 40.236 149.521 61.9381 151.397 81.9459C153.272 101.954 161.602 120.75 170.283 138.907C172.467 143.475 175.488 148.63 180.553 149.212C185.104 149.735 189.268 145.963 190.682 141.642C191.772 137.209 191.73 132.576 190.56 128.163C189.28 121.419 187.666 114.526 188.87 107.769C190.073 101.011 194.976 94.3329 201.846 93.5047C208.716 92.6766 215.746 100.463 212.443 106.493L214.136 103.89Z" fill="#2F2E41"/>
<path d="M1781.93 569.194C1779.82 566.805 1778.26 563.985 1777.36 560.933C1776.47 557.881 1776.26 554.671 1776.75 551.53C1777.24 548.389 1778.42 545.393 1780.2 542.752C1781.98 540.112 1784.33 537.892 1787.07 536.248L1770.86 460.675L1808.57 475.322L1818.18 544.842C1820.66 549.595 1821.29 555.085 1819.96 560.271C1818.63 565.458 1815.43 569.98 1810.96 572.982C1806.5 575.984 1801.07 577.256 1795.72 576.558C1790.37 575.86 1785.46 573.24 1781.93 569.194Z" fill="#FFB8B8"/>
<path d="M1777.65 510.228L1777.45 509.486C1757.07 434.739 1736 357.47 1710.28 273.339L1710.11 272.788L1710.68 272.46C1725.01 264.164 1746.56 264.717 1760.8 273.743C1767.24 277.859 1772.26 283.84 1775.16 290.875C1778.06 297.91 1778.72 305.66 1777.03 313.075L1795.79 410.063C1803.42 441.766 1811.31 474.582 1818.85 506.939L1819.07 507.856L1817.9 507.93C1804.16 508.797 1789.97 509.692 1778.6 510.187L1777.65 510.228Z" fill="#CCCCCC"/>
<path d="M1604.44 912.522H1577.71L1564.99 810.281H1604.44V912.522Z" fill="#FFB8B8"/>
<path d="M1611.26 938.218H1525.06V937.137C1525.07 928.317 1528.61 919.86 1534.9 913.624C1541.19 907.387 1549.72 903.879 1558.62 903.869H1611.26L1611.26 938.218Z" fill="#2F2E41"/>
<path d="M1856.35 890.656L1830.88 898.704L1787.45 805.118L1825.04 793.239L1856.35 890.656Z" fill="#FFB8B8"/>
<path d="M1788.58 939.035L1788.25 938.004C1785.56 929.597 1786.34 920.475 1790.43 912.639C1794.51 904.803 1801.56 898.893 1810.03 896.206L1860.19 880.357L1870.71 913.085L1788.58 939.035Z" fill="#2F2E41"/>
<path d="M1721.04 204.841C1750.62 204.841 1774.6 181.065 1774.6 151.737C1774.6 122.408 1750.62 98.6323 1721.04 98.6323C1691.46 98.6323 1667.49 122.408 1667.49 151.737C1667.49 181.065 1691.46 204.841 1721.04 204.841Z" fill="#FFB8B8"/>
<path d="M1745.09 141.895C1745.39 120.476 1736.35 99.2631 1722.37 88.598C1715.79 83.4228 1707.59 80.6744 1699.19 80.8217C1690.79 80.9689 1682.69 84.0027 1676.29 89.4054C1662.53 100.557 1653.92 122.079 1654.65 143.479C1685.48 143.566 1716.31 143.653 1745.09 141.895Z" fill="#2F2E41"/>
<path d="M1619.71 879.612L1618.63 879.508C1595.38 877.245 1571.33 874.907 1548.6 874.639L1547.36 874.624L1547.53 873.41C1552.92 834.739 1555.2 794.537 1557.41 755.656C1559.59 717.266 1561.84 677.569 1567.09 639.867C1569.31 629.771 1571.48 619.795 1573.63 609.856C1591.48 527.602 1608.34 449.908 1643.14 373.001L1643.47 372.275L1644.27 372.37C1676.92 376.288 1708.29 388.101 1732.61 405.631L1733.08 405.97L1733.06 406.547C1732.59 418.493 1732.11 430.842 1732.82 442.091C1743.86 457.297 1751.17 474.843 1754.19 493.339C1757.2 511.834 1755.82 530.771 1750.17 548.648C1759.74 580.378 1769.64 613.177 1779.74 645.532C1804.27 712.209 1829.65 781.209 1855.67 851.153L1856.1 852.3L1854.9 852.579C1836.18 856.937 1816.87 861.43 1797.82 863.174L1797.1 863.239L1796.75 862.608C1748.18 772.966 1708.67 678.773 1678.81 581.409C1672.31 601.068 1662.95 618.813 1653.87 636.001C1645.2 651.634 1637.56 667.814 1631.02 684.437C1627 717.131 1625.94 752.552 1624.91 786.807C1623.93 819.194 1623.01 849.785 1619.82 878.55L1619.71 879.612Z" fill="#2F2E41"/>
<path d="M1702.76 89.5803C1725.97 84.621 1751.65 89.3391 1769.88 104.87C1788.11 120.4 1797.37 147.267 1789.88 170.309C1782.39 193.351 1756.96 209.563 1733.97 203.613C1740.56 185.208 1733.15 162.611 1717.05 152.01C1697.95 139.437 1692.7 109.422 1702.76 89.5803Z" fill="#2F2E41"/>
<path d="M1730.94 407.94L1730.09 407.557C1700.48 394.16 1671.44 383.88 1644.23 374.501L1643.4 374.323L1643.4 371.924L1643.94 372.111C1644.05 371.862 1644.18 371.579 1644.31 371.297C1644.68 370.482 1644.93 369.927 1645.15 369.559L1645.14 369.556C1647.41 364.973 1649.22 360.544 1650.96 356.261C1652.76 351.841 1654.62 347.277 1657.02 342.448C1651.2 336.663 1647.22 329.317 1645.56 321.314C1643.9 313.312 1644.64 305.003 1647.69 297.414C1653.7 283.289 1669.03 272.288 1685.13 270.463C1691.03 254.358 1704.17 220.517 1704.17 220.517C1704.17 220.517 1731.82 219.765 1742.94 218.366L1743.12 218.343L1743.31 218.383C1767.58 223.656 1787.84 246.429 1792.58 273.763C1796.59 296.833 1790.51 323.221 1775.47 348.067C1767.76 360.217 1759.23 371.838 1749.94 382.853C1743.17 391.25 1736.77 399.181 1731.46 407.168L1730.94 407.94Z" fill="#CCCCCC"/>
<path d="M1784.55 121.05C1768.3 118.644 1755.54 102.173 1757.39 85.9846C1759.23 69.7961 1775.38 56.5679 1791.76 57.8236C1808.14 59.0793 1822.05 74.6112 1821.37 90.8888C1820.68 107.167 1805.3 124.121 1784.55 121.05Z" fill="#2F2E41"/>
<path d="M1782.01 110.553C1765.76 108.147 1753 91.6761 1754.85 75.4877C1755.65 69.9814 1757.85 64.767 1761.24 60.3306C1764.63 55.8942 1769.09 52.3803 1774.22 50.1163C1761.11 52.9605 1749.83 64.2837 1748.31 77.6498C1746.46 93.8382 1759.22 110.309 1775.47 112.715C1781.52 113.657 1787.73 112.797 1793.29 110.243C1789.58 111.016 1785.76 111.121 1782.01 110.553Z" fill="#2F2E41"/>
<path d="M1466.8 395.906C1468.36 393.134 1470.53 390.736 1473.13 388.881C1475.73 387.027 1478.71 385.761 1481.86 385.173C1485.01 384.585 1488.26 384.689 1491.36 385.477C1494.47 386.266 1497.36 387.72 1499.84 389.737L1566.3 349.402L1564.93 389.53L1502.03 421.681C1498.34 425.583 1493.33 428.005 1487.95 428.49C1482.58 428.975 1477.21 427.488 1472.87 424.311C1468.52 421.134 1465.51 416.488 1464.39 411.253C1463.27 406.017 1464.13 400.557 1466.8 395.906Z" fill="#FFB8B8"/>
<path d="M1521.44 372.257L1522.08 371.82C1586.36 327.862 1652.82 282.421 1724.25 230.343L1724.71 230.001L1725.22 230.423C1737.88 241.062 1744.53 261.391 1740.7 277.709C1738.93 285.106 1734.91 291.786 1729.19 296.844C1723.47 301.903 1716.32 305.095 1708.7 305.989L1622.73 355.842C1595.12 373.536 1566.55 391.849 1538.3 409.683L1537.5 410.188L1537.04 409.121C1531.64 396.567 1526.06 383.599 1521.8 373.134L1521.44 372.257Z" fill="#CCCCCC"/>
<path d="M624.962 940.633H-205.819C-206.398 940.633 -206.952 940.405 -207.361 940C-207.77 939.594 -208 939.044 -208 938.471C-208 937.897 -207.77 937.347 -207.361 936.942C-206.952 936.536 -206.398 936.309 -205.819 936.309H624.962C625.541 936.309 626.095 936.536 626.504 936.942C626.913 937.347 627.143 937.897 627.143 938.471C627.143 939.044 626.913 939.594 626.504 940C626.095 940.405 625.541 940.633 624.962 940.633Z" fill="#3F3D56"/>
<path d="M2096.82 940.633H1266.04C1265.46 940.633 1264.91 940.405 1264.5 940C1264.09 939.594 1263.86 939.044 1263.86 938.471C1263.86 937.897 1264.09 937.347 1264.5 936.942C1264.91 936.536 1265.46 936.309 1266.04 936.309H2096.82C2097.4 936.309 2097.95 936.536 2098.36 936.942C2098.77 937.347 2099 937.897 2099 938.471C2099 939.044 2098.77 939.594 2098.36 940C2097.95 940.405 2097.4 940.633 2096.82 940.633Z" fill="#3F3D56"/>
</g>
<defs>
<clipPath id="clip0_597_2048">
<rect width="2307" height="939.978" fill="white" transform="translate(-208 0.654541)"/>
</clipPath>
</defs>
</svg>
