<svg width="700" height="496" viewBox="0 0 700 496" fill="none" xmlns="http://www.w3.org/2000/svg">
<path opacity="0.1" d="M553.647 425.637C632.978 425.637 697.288 413.137 697.288 397.718C697.288 382.3 632.978 369.8 553.647 369.8C474.316 369.8 410.006 382.3 410.006 397.718C410.006 413.137 474.316 425.637 553.647 425.637Z" fill="#6C63FF"/>
<g opacity="0.5">
<path d="M430.612 70.3799C428.675 70.9304 426.303 72.3644 425.134 76.2857C422.844 83.972 428.165 89.1982 426.412 97.2107C425.925 99.3362 424.999 101.336 423.693 103.083C421.552 105.984 419.228 107.357 416.972 109.389C414.11 111.985 412.059 115.353 411.066 119.087C409.978 123.209 409.887 127.53 410.801 131.694C411.603 135.173 412.969 137.708 414.165 140.529C415.652 144.126 416.815 147.849 417.638 151.654C418.09 153.507 418.345 155.402 418.399 157.308C418.365 159.841 418.138 162.367 417.72 164.865L414.464 187.578C413.97 190.547 413.672 193.547 413.574 196.555C413.616 199.571 413.965 202.574 414.614 205.519C415.755 211.527 416.986 217.752 419.602 220.933C422.218 224.113 426.677 222.972 429.415 216.536C432.018 210.379 432.08 202.162 434.377 195.584C437.999 185.22 445.196 183.826 449.192 173.938C453.025 164.424 451.849 152.816 453.793 141.997C455.152 134.242 458.149 127.175 459.909 119.515C462.437 108.485 462.186 97.034 460.168 88.5525C458.632 81.5837 455.312 75.1339 450.531 69.8362C448.839 67.9673 447.024 66.3023 444.897 66.1324C442.634 65.9557 440.656 68.8032 438.42 69.6595C435.838 70.6721 433.242 69.6324 430.612 70.3799Z" fill="#6C63FF"/>
<path d="M442.865 66.7101C442.865 66.7101 439.032 164.804 422.912 222.645" stroke="#535461" stroke-width="1.35921" stroke-miterlimit="10"/>
<path d="M425.039 76.7478C425.039 76.7478 442.267 92.4331 438.998 122.281" stroke="#535461" stroke-width="1.35921" stroke-miterlimit="10"/>
<path d="M410.584 121.384C410.584 121.384 438.862 127.072 436.762 143.988" stroke="#535461" stroke-width="1.35921" stroke-miterlimit="10"/>
<path d="M460.215 88.3486C460.215 88.3486 448.771 98.366 438.577 126.74" stroke="#535461" stroke-width="1.35921" stroke-miterlimit="10"/>
<path d="M449.036 174.101C449.036 174.101 441.227 180.218 434.961 158.803" stroke="#535461" stroke-width="1.35921" stroke-miterlimit="10"/>
<path d="M415.341 186.613C415.341 186.613 431.264 184.533 432.732 174.563" stroke="#535461" stroke-width="1.35921" stroke-miterlimit="10"/>
</g>
<path d="M469.104 4.58746C465.163 5.17192 460.419 7.00006 458.468 12.634C454.642 23.6844 466.27 32.0503 463.593 43.5968C462.794 46.7743 461.111 49.6607 458.74 51.9219C454.663 55.9384 450.001 57.6918 445.583 60.417C441.166 63.1422 436.578 67.4305 434.506 74.0091C432.514 80.3362 433.377 87.3226 435.45 92.5419C437.523 97.7613 440.656 101.655 443.456 105.951C446.859 111.237 449.703 116.863 451.944 122.737C453.075 125.414 453.834 128.233 454.201 131.116C454.561 134.65 454.105 138.449 453.65 142.167L449.606 175.291C449.069 179.695 448.526 184.166 448.832 188.407C449.178 193.293 450.626 197.561 452.053 201.727C455.125 210.712 458.414 220.077 464.211 225.024C470.008 229.972 479.101 228.911 484.001 219.71C488.663 210.95 487.807 198.859 491.783 189.447C498.049 174.611 512.782 173.408 519.871 159.327C526.667 145.816 522.868 128.534 525.6 112.835C527.557 101.587 532.858 91.5293 535.576 80.4586C539.498 64.5082 537.615 47.6201 532.437 34.925C527.258 22.23 519.069 13.1777 510.282 6.22531C506.557 3.26903 502.609 0.598177 498.185 0.108861C493.482 -0.414434 489.723 3.54086 485.204 4.53988C479.944 5.63405 474.453 3.79232 469.104 4.58746Z" fill="#6C63FF"/>
<path d="M494.032 0.63208C494.032 0.63208 497.743 144.634 471.224 227.906" stroke="#535461" stroke-width="1.35921" stroke-miterlimit="10"/>
<path d="M458.319 13.327C458.319 13.327 495.833 38.4724 492.618 82.0759" stroke="#535461" stroke-width="1.35921" stroke-miterlimit="10"/>
<path d="M433.697 77.3254C433.697 77.3254 492.904 89.0554 490.566 113.711" stroke="#535461" stroke-width="1.35921" stroke-miterlimit="10"/>
<path d="M532.505 34.558C532.505 34.558 510.003 47.953 492.279 88.5254" stroke="#535461" stroke-width="1.35921" stroke-miterlimit="10"/>
<path d="M519.517 159.517C519.517 159.517 504.09 167.672 488.575 135.316" stroke="#535461" stroke-width="1.35921" stroke-miterlimit="10"/>
<path d="M451.264 173.931C451.264 173.931 483.974 172.756 485.836 158.246" stroke="#535461" stroke-width="1.35921" stroke-miterlimit="10"/>
<path d="M45.7033 393.213C45.7033 393.213 51.3984 400.688 43.0733 411.902C34.7481 423.115 27.8705 432.643 30.6637 439.657C30.6637 439.657 43.2228 418.773 53.444 418.48C63.6653 418.188 56.9508 405.772 45.7033 393.213Z" fill="#6C63FF"/>
<path opacity="0.1" d="M45.7036 393.213C46.2118 393.931 46.6146 394.718 46.8997 395.55C56.8763 407.267 62.184 418.202 52.6016 418.48C43.6716 418.739 32.961 434.703 30.3921 438.739C30.4769 439.051 30.579 439.357 30.6979 439.657C30.6979 439.657 43.257 418.773 53.4783 418.48C63.6995 418.188 56.9511 405.772 45.7036 393.213Z" fill="black"/>
<path d="M56.2913 402.707C56.2913 405.33 55.9991 407.464 55.6117 407.464C55.2244 407.464 54.9321 405.337 54.9321 402.707C54.9321 400.077 55.2991 401.348 55.6593 401.348C56.0195 401.348 56.2913 400.084 56.2913 402.707Z" fill="#FFD037"/>
<path d="M59.9272 405.833C57.6233 407.09 55.6185 407.872 55.4486 407.525C55.2787 407.179 56.9981 405.928 59.302 404.678C61.6058 403.427 60.6951 404.338 60.8718 404.678C61.0485 405.018 62.2243 404.576 59.9272 405.833Z" fill="#FFD037"/>
<path d="M15.6379 393.213C15.6379 393.213 9.94281 400.688 18.268 411.902C26.5931 423.115 33.4571 432.637 30.6776 439.65C30.6776 439.65 18.1185 418.766 7.89719 418.474C-2.32407 418.181 4.37684 405.772 15.6379 393.213Z" fill="#6C63FF"/>
<path opacity="0.1" d="M15.6379 393.213C15.1416 393.933 14.7503 394.72 14.4758 395.55C4.49917 407.267 -0.808546 418.202 8.77388 418.48C17.7039 418.739 28.4145 434.703 30.9834 438.739C30.8986 439.051 30.7965 439.357 30.6776 439.657C30.6776 439.657 18.1185 418.773 7.89719 418.48C-2.32407 418.188 4.37684 405.772 15.6379 393.213Z" fill="black"/>
<path d="M5.03613 402.707C5.03613 405.33 5.32836 407.464 5.71574 407.464C6.10311 407.464 6.39534 405.337 6.39534 402.707C6.39534 400.077 6.02836 401.348 5.66817 401.348C5.30798 401.348 5.03613 400.084 5.03613 402.707Z" fill="#FFD037"/>
<path d="M1.40049 405.833C3.70435 407.09 5.70918 407.872 5.87909 407.525C6.04899 407.179 4.32959 405.928 2.02573 404.678C-0.278135 403.427 0.632538 404.338 0.455841 404.678C0.279143 405.018 -0.896574 404.576 1.40049 405.833Z" fill="#FFD037"/>
<path d="M6.8501 438.678C6.8501 438.678 22.7732 438.189 27.5713 434.771C32.3693 431.352 52.037 427.295 53.2535 432.732C54.47 438.169 77.1824 459.991 59.2069 460.133C41.2313 460.276 17.4383 457.333 12.6471 454.418C7.85591 451.502 6.8501 438.678 6.8501 438.678Z" fill="#A8A8A8"/>
<path opacity="0.2" d="M59.5263 458.244C41.5507 458.387 17.7578 455.444 12.9665 452.529C9.31706 450.306 7.86271 442.335 7.38019 438.658H6.8501C6.8501 438.658 7.85591 451.502 12.6471 454.418C17.4383 457.333 41.2313 460.283 59.2069 460.133C64.3991 460.093 66.1864 458.244 66.0913 455.512C65.3709 457.184 63.3932 458.217 59.5263 458.244Z" fill="black"/>
<path d="M667.617 390.121C668.862 389.105 669.77 387.735 670.22 386.192C670.56 384.629 669.894 382.76 668.398 382.19C666.727 381.551 664.939 382.706 663.587 383.882C662.235 385.057 660.678 386.389 658.904 386.138C659.816 385.312 660.498 384.263 660.884 383.095C661.27 381.926 661.346 380.678 661.106 379.471C661.03 378.971 660.818 378.501 660.495 378.112C659.564 377.12 657.885 377.548 656.77 378.329C653.237 380.817 652.251 385.615 652.231 389.937C651.877 388.381 652.176 386.756 652.163 385.18C652.149 383.603 651.714 381.782 650.369 380.953C649.534 380.504 648.597 380.282 647.65 380.307C646.06 380.246 644.293 380.409 643.206 381.571C641.846 383.012 642.206 385.438 643.382 387.008C644.558 388.578 646.338 389.59 647.983 390.691C649.301 391.475 650.426 392.546 651.272 393.824C651.372 394.002 651.454 394.188 651.517 394.382H661.473C663.704 393.245 665.771 391.812 667.617 390.121Z" fill="#6C63FF"/>
<path opacity="0.1" d="M99.7181 326.428C121.343 353.925 112.943 394.096 99.2016 426.262C94.6007 437.034 89.3949 448.431 91.3386 459.977C93.7104 474.099 106.29 484.443 119.556 489.88C143.682 499.856 172.565 497.478 194.727 483.688C213.885 471.768 227.606 452.386 247.09 441.009C279.712 421.98 321.208 429.164 356.616 442.273C381.666 451.55 409.054 463.62 433.948 453.922C451.461 447.126 463.572 430.496 470.171 412.894C473.358 404.392 475.669 395.224 481.724 388.428C485.34 384.425 490.056 381.578 494.895 379.186C539.069 357.296 594.797 368.992 637.666 344.743C666.624 328.351 685.164 297.422 693.394 265.175C701.624 232.928 700.645 199.111 698.559 165.905C697.077 142.302 694.42 117.109 679.34 98.8893C663.389 79.6225 636.008 72.4526 611.264 76.1157C586.519 79.7788 564.079 92.8952 544.37 108.268C519.707 127.48 496.839 151.409 466.555 159.197C445.936 164.498 424.243 161.596 402.971 160.597C367.415 158.919 331.851 162.636 296.491 166.714C262.64 170.628 228.53 174.937 196.297 185.947C173.476 193.742 155.181 207.884 133.63 217.766C119.583 224.208 104.265 225.989 90.9716 234.192C74.5863 244.298 59.5739 261.879 63.7874 282.444C67.7427 302.023 88.2328 311.837 99.7181 326.428Z" fill="#6C63FF"/>
<path opacity="0.1" d="M375.38 326.414C535.9 326.414 666.027 313.915 666.027 298.496C666.027 283.077 535.9 270.578 375.38 270.578C214.86 270.578 84.7334 283.077 84.7334 298.496C84.7334 313.915 214.86 326.414 375.38 326.414Z" fill="#6C63FF"/>
<path opacity="0.1" d="M152.001 487.481C231.332 487.481 295.642 474.981 295.642 459.563C295.642 444.144 231.332 431.644 152.001 431.644C72.6698 431.644 8.35938 444.144 8.35938 459.563C8.35938 474.981 72.6698 487.481 152.001 487.481Z" fill="#6C63FF"/>
<path d="M298.836 289.79L296.559 293.1C296.559 293.1 299.04 296.41 299.278 296.824C299.516 297.239 306.516 296.62 306.516 296.62L307.134 294.14L306.101 291.245L298.836 289.79Z" fill="#E6E6F0"/>
<path d="M222.292 287.928L217.739 288.751L220.634 294.344L223.74 295.995L226.635 298.061L227.464 295.791L225.391 291.442L222.292 287.928Z" fill="#FDC2CC"/>
<path d="M296.77 234.137C296.77 234.137 320.977 239.928 325.524 246.37C325.524 246.37 329.663 249.891 325.524 256.299C321.385 262.708 315.595 277.197 315.595 277.197C315.595 277.197 311.456 291.265 309.805 292.298C308.153 293.331 298.632 294.16 297.803 290.259C297.803 290.259 303.179 281.778 303.179 277.843C303.179 273.908 312.075 255.294 312.075 255.294C312.075 255.294 291.802 253.017 285.387 254.464C278.971 255.912 288.288 231.861 296.77 234.137Z" fill="#565171"/>
<path opacity="0.1" d="M296.77 234.137C296.77 234.137 320.977 239.928 325.524 246.37C325.524 246.37 329.663 249.891 325.524 256.299C321.385 262.708 315.595 277.197 315.595 277.197C315.595 277.197 311.456 291.265 309.805 292.298C308.153 293.331 298.632 294.16 297.803 290.259C297.803 290.259 303.179 281.778 303.179 277.843C303.179 273.908 312.075 255.294 312.075 255.294C312.075 255.294 291.802 253.017 285.387 254.464C278.971 255.912 288.288 231.861 296.77 234.137Z" fill="black"/>
<path d="M291.802 239.724C291.754 240.927 291.625 242.279 291.442 243.734C290.117 254.267 285.801 269.932 285.801 269.932C285.801 269.932 281.458 279.243 280.215 285.244C278.971 291.245 270.49 292.72 270.49 292.72C270.49 292.72 247.315 295.438 242.558 294.378C237.801 293.318 230.325 297.484 226.628 296.858C222.931 296.233 220.627 287.548 220.627 287.548C227.044 287.585 233.393 286.246 239.248 283.62C248.763 279.277 262.423 281.343 262.423 281.343C263.442 281.047 264.389 280.546 265.207 279.87C266.025 279.195 266.697 278.359 267.18 277.415C268.627 274.309 268.627 255.484 268.213 254.24C265.494 246.085 265.719 240.852 266.5 237.801C266.762 236.468 267.35 235.221 268.213 234.172L291.802 239.724Z" fill="#565171"/>
<path opacity="0.1" d="M291.802 239.724C291.755 240.927 291.626 242.279 291.442 243.734C289.363 243.897 283.532 244.053 279.209 241.382C275.132 238.881 269.199 238.032 266.528 237.767C266.789 236.434 267.378 235.187 268.24 234.138L291.802 239.724Z" fill="black"/>
<path d="M294.663 237.135C293.698 239.853 292.216 243.04 292.216 243.04C292.216 243.04 284.564 244.073 279.182 240.764C273.799 237.454 265.114 237.039 265.114 237.039C266.521 236.176 267.472 233.553 268.063 231.256C268.393 229.957 268.652 228.641 268.838 227.314C268.838 227.314 294.282 232.486 295.343 233.315C295.737 233.641 295.315 235.286 294.663 237.135Z" fill="#E6E6F0"/>
<path d="M340.006 149.935L309.146 168.563L306.081 170.411V161.311L308.208 160.292L334.216 147.862C334.216 147.862 335.46 125.312 338.77 128.833C342.079 132.353 340.006 149.935 340.006 149.935Z" fill="#FDC2CC"/>
<path opacity="0.1" d="M309.146 168.562L306.081 170.411V161.311L308.208 160.292C308.349 163.065 308.662 165.828 309.146 168.562Z" fill="black"/>
<path d="M285.393 171.893L307.528 159.068C307.528 159.068 307.943 171.485 310.423 173.34C310.423 173.34 301.323 176.059 297.803 181.822L285.393 171.893Z" fill="#B45181"/>
<path opacity="0.1" d="M285.393 171.893L307.528 159.068C307.528 159.068 307.943 171.485 310.423 173.34C310.423 173.34 301.323 176.059 297.803 181.822L285.393 171.893Z" fill="black"/>
<path d="M339.809 182.827C339.809 182.827 329.282 187.415 322.309 189.1C320.74 189.573 319.099 189.762 317.464 189.657C312.707 188.828 318.707 182.861 318.707 182.861L321.208 182.474L334.637 180.381C334.637 180.381 336.085 159.694 338.566 161.352C341.046 163.01 339.809 182.827 339.809 182.827Z" fill="#FDC2CC"/>
<path d="M295.322 164.206C295.322 164.206 286.426 170.825 289.736 179.103C293.046 187.381 272.562 174.135 272.562 174.135C272.562 174.135 279.182 164.206 280.629 156.758C282.077 149.309 295.322 164.206 295.322 164.206Z" fill="#FDC2CC"/>
<path opacity="0.1" d="M294.663 237.135C290.816 235.685 286.794 234.749 282.702 234.348C276.722 233.669 271.244 232.52 268.07 231.256C268.4 229.957 268.659 228.641 268.845 227.314C268.845 227.314 294.289 232.486 295.35 233.315C295.737 233.641 295.316 235.286 294.663 237.135Z" fill="black"/>
<path opacity="0.1" d="M322.302 189.1C320.733 189.573 319.092 189.762 317.457 189.657C312.699 188.828 318.7 182.861 318.7 182.861L321.201 182.474C322.248 184.085 323.315 186.599 322.302 189.1Z" fill="black"/>
<path d="M280.84 167.93C280.84 167.93 272.773 167.727 269.878 171.036C266.983 174.346 267.602 183.269 267.602 183.269C267.602 183.269 266.997 201.136 271.53 211.133C271.679 211.456 271.696 211.824 271.577 212.159C271.53 212.281 271.53 212.207 271.53 212.207C271.53 212.207 268.635 225.242 265.74 227.518C262.844 229.795 271.944 232.486 282.73 233.723C293.515 234.96 297.831 238.066 297.831 238.066C297.831 238.066 299.693 236.027 299.869 231.446C300.046 226.866 296.995 193.586 296.995 193.586C296.995 193.586 308.371 196.481 315.201 192.967C315.201 192.967 318.307 194.625 321.202 190.072C324.097 185.519 319.163 180.557 319.163 180.557C319.163 180.557 314.61 185.111 301.99 179.11C289.369 173.109 284.762 167.727 280.84 167.93Z" fill="#B45181"/>
<path d="M218.983 288.343H216.502V291.863L218.983 297.45C218.983 297.45 222.292 298.068 222.503 298.068C222.714 298.068 225.398 297.45 225.398 297.45L226.227 296.002C226.227 296.002 217.12 292.475 218.983 288.343Z" fill="#E6E6F0"/>
<path d="M296.77 291.652L293.046 299.93L308.772 307.406L321.188 307.82C321.188 307.82 322.221 304.925 318.083 303.478L314.773 302.859C314.773 302.859 310.43 294.996 310.016 291.306C310.016 291.306 305.877 292.135 305.258 295.234C305.252 295.166 299.461 298.061 296.77 291.652Z" fill="#B45181"/>
<path d="M217.12 287.514L215.856 288.547L210.297 293.1L223.121 310.09C223.121 310.09 230.359 313.196 233.675 310.09C233.675 310.09 235.714 308.051 231.195 306.366C231.195 306.366 227.674 306.984 227.674 303.471C227.674 299.957 228.503 296.233 229.713 295.404C229.713 295.404 226.607 294.371 225.785 295.2C225.152 295.897 224.596 296.661 224.127 297.477C224.127 297.477 216.706 294.548 217.12 287.514Z" fill="#B45181"/>
<path opacity="0.1" d="M280.222 157.172C280.012 158.222 279.735 159.257 279.393 160.271C280.467 162.856 282.507 164.921 285.079 166.026C287.651 167.131 290.553 167.19 293.168 166.191C293.714 165.628 294.297 165.103 294.915 164.621C294.915 164.621 281.669 149.724 280.222 157.172Z" fill="black"/>
<path opacity="0.1" d="M279.08 184.805C279.08 184.805 285.495 193.287 294.806 193.497L279.08 184.805Z" fill="black"/>
<g opacity="0.1">
<path d="M317.424 193.11C317.293 193.073 317.166 193.025 317.043 192.967C316.844 193.071 316.64 193.169 316.432 193.259C316.767 193.253 317.101 193.202 317.424 193.11Z" fill="black"/>
<path d="M319.625 181.407C319.4 181.118 319.16 180.841 318.905 180.578C318.905 180.578 317.546 181.937 314.188 182.195C316.038 182.379 317.904 182.108 319.625 181.407Z" fill="black"/>
<path d="M298.836 193.585L298.877 194.027C301.606 194.533 304.38 194.76 307.155 194.707C304.352 194.605 301.566 194.229 298.836 193.585Z" fill="black"/>
<path d="M284.564 233.737C273.806 232.493 264.706 229.808 267.574 227.532C270.442 225.255 273.365 212.22 273.365 212.22C273.365 212.22 273.365 212.295 273.412 212.173C273.531 211.838 273.514 211.469 273.365 211.146C268.832 201.122 269.436 183.283 269.436 183.283C269.436 183.283 268.818 174.387 271.713 171.05C273.867 168.583 278.89 168.073 281.316 167.971C281.09 167.954 280.863 167.954 280.636 167.971C280.636 167.971 272.569 167.767 269.674 171.077C266.779 174.387 267.398 183.31 267.398 183.31C267.398 183.31 266.793 201.177 271.326 211.174C271.475 211.496 271.492 211.865 271.373 212.2C271.326 212.322 271.326 212.247 271.326 212.247C271.326 212.247 268.451 225.241 265.529 227.518C262.606 229.795 271.734 232.486 282.519 233.723C293.304 234.96 297.62 238.066 297.62 238.066C297.836 237.806 298.027 237.526 298.191 237.23C296.091 236.217 291.768 234.552 284.564 233.737Z" fill="black"/>
</g>
<path d="M289.736 166.483C295.677 166.483 300.494 161.666 300.494 155.725C300.494 149.783 295.677 144.967 289.736 144.967C283.794 144.967 278.978 149.783 278.978 155.725C278.978 161.666 283.794 166.483 289.736 166.483Z" fill="#FDC2CC"/>
<path opacity="0.1" d="M305.047 150.913C304.157 153.142 301.5 153.985 299.169 154.562C295.839 155.378 292.25 156.18 289.063 154.916C288.65 154.684 288.173 154.591 287.704 154.651C287.325 154.803 287.009 155.078 286.807 155.432C283.293 160.434 283.864 167.101 282.953 173.15C282.668 175.032 282.185 176.976 280.914 178.383C278.441 181.101 273.772 180.999 271.495 183.887C269.993 185.79 269.98 188.434 269.993 190.86C269.993 193.447 269.971 196.037 269.925 198.628C269.884 200.327 269.803 202.087 269.035 203.596C267.73 206.151 264.821 207.368 262.137 208.353C260.465 208.978 258.739 209.61 256.945 209.441C255.151 209.271 253.356 208.081 253.125 206.287C252.806 203.854 255.314 202.155 257.04 200.402C259.799 197.609 260.934 193.545 261.036 189.617C261.133 188.03 260.902 186.441 260.356 184.948C259.724 183.405 258.596 182.107 257.917 180.585C255.823 175.895 258.406 170.472 261.498 166.367C264.59 162.262 268.389 158.26 269.049 153.169C269.106 152.068 269.263 150.974 269.517 149.9C269.993 148.419 271.121 144.328 272.365 143.39C274.356 141.89 276.694 140.917 279.161 140.563C281.071 140.284 283.021 140.386 284.917 140.019C287.133 139.591 289.192 138.537 291.408 138.143C296.199 137.294 301.398 142.86 303.498 147.25C304.075 148.596 305.591 149.547 305.047 150.913Z" fill="black"/>
<path d="M305.047 150.499C304.157 152.728 301.5 153.57 299.169 154.148C295.839 154.964 292.25 155.766 289.063 154.501C288.65 154.27 288.173 154.177 287.704 154.236C287.325 154.388 287.009 154.664 286.807 155.018C283.293 160.02 283.864 166.687 282.953 172.735C282.668 174.618 282.185 176.561 280.914 177.968C278.441 180.687 273.772 180.585 271.495 183.473C269.993 185.376 269.98 188.02 269.993 190.446C269.993 193.033 269.971 195.622 269.925 198.214C269.884 199.913 269.803 201.673 269.035 203.182C267.73 205.737 264.821 206.953 262.137 207.939C260.465 208.564 258.739 209.196 256.945 209.026C255.151 208.856 253.356 207.667 253.125 205.873C252.806 203.44 255.314 201.741 257.04 199.987C259.799 197.194 260.934 193.13 261.036 189.202C261.133 187.616 260.902 186.026 260.356 184.533C259.724 182.99 258.596 181.692 257.917 180.17C255.823 175.481 258.406 170.058 261.498 165.953C264.59 161.848 268.389 157.845 269.049 152.755C269.106 151.653 269.263 150.559 269.517 149.486C269.993 148.004 271.121 143.913 272.365 142.975C274.356 141.475 276.694 140.503 279.161 140.148C281.071 139.87 283.021 139.971 284.917 139.604C287.133 139.176 289.192 138.123 291.408 137.729C296.199 136.879 301.398 142.445 303.498 146.836C304.075 148.181 305.591 149.133 305.047 150.499Z" fill="#F569BC"/>
<path d="M339.809 129.818H518.66V308.656H339.809V129.818Z" fill="#F7DF1E"/>
<path d="M386.845 279.27L400.532 270.986C403.176 275.668 405.575 279.63 411.338 279.63C416.863 279.63 420.343 277.469 420.343 269.069V211.921H437.149V269.3C437.149 286.705 426.955 294.629 412.058 294.629C398.616 294.629 390.814 287.663 386.852 279.263M446.276 277.462L459.957 269.538C463.559 275.424 468.241 279.732 476.526 279.732C483.492 279.732 487.929 276.253 487.929 271.448C487.929 265.685 483.369 263.646 475.697 260.282L471.497 258.481C459.372 253.323 451.326 246.839 451.326 233.152C451.326 220.546 460.929 210.943 475.934 210.943C486.618 210.943 494.284 214.667 499.823 224.385L486.74 232.792C483.859 227.627 480.739 225.588 475.934 225.588C471.014 225.588 467.888 228.708 467.888 232.792C467.888 237.835 471.007 239.873 478.211 242.986L482.411 244.787C496.683 250.903 504.743 257.149 504.743 271.196C504.743 286.324 492.857 294.609 476.879 294.609C461.248 294.609 451.19 287.133 446.297 277.442" fill="black"/>
<path d="M597.114 407.906C597.114 407.906 590.135 408.395 585.826 400.919C584.984 399.414 583.989 398 582.856 396.699C581.465 394.418 580.742 391.793 580.77 389.121C581.008 383.583 575.231 353.245 575.231 353.245C575.231 353.245 575.951 341.692 570.175 334.468C566.369 329.71 560.898 316.118 557.602 307.338C557.823 307.535 558.089 307.675 558.377 307.746L558.241 306.991H558.377L556.671 297.619C554.188 294.765 552.094 291.593 550.446 288.186L550.833 288.105L555.944 287.031C555.944 287.031 564.249 275.226 564.779 269.423H565.458H566.417C574.104 269.381 581.787 269.782 589.428 270.625C589.428 270.591 589.374 270.442 589.306 270.204C588.982 269.036 588.733 267.849 588.558 266.65H589.034L593.791 266.337C593.791 266.337 610.163 248.042 604.141 244.671C598.12 241.301 591.861 259.84 591.861 259.84L589.822 260.207L589.272 260.309C589.326 260.228 589.38 260.153 589.442 260.078C589.503 260.003 562.72 258.882 558.594 252.371C558.594 252.371 546.796 242.979 546.314 236.74C546.227 235.446 545.785 234.201 545.037 233.141C544.289 232.081 543.264 231.248 542.073 230.733C540.616 230.037 539.001 229.735 537.391 229.856L531.865 230.237L532.253 230.916H532.097C531.75 230.122 531.459 229.304 531.227 228.47H531.342C531.301 228.3 531.267 228.13 531.233 227.96C532.927 227.561 534.523 226.825 535.927 225.798C537.331 224.771 538.514 223.472 539.407 221.979C540.3 220.486 540.884 218.829 541.125 217.106C541.366 215.383 541.258 213.629 540.809 211.948C541.35 212.018 541.898 212.002 542.433 211.901C544.472 211.486 545.906 209.42 545.961 207.354C545.961 207.218 545.961 207.082 545.961 206.953C545.961 206.953 545.961 206.899 545.961 206.872C545.94 205.834 545.689 204.813 545.224 203.884C544.76 202.956 544.094 202.142 543.276 201.503C542.175 200.585 540.857 199.933 539.878 198.914C538.689 197.697 538.036 196.066 537.112 194.632C535.564 192.26 533.268 190.473 530.588 189.555C528.597 188.876 526.15 188.808 524.621 190.235C523.833 190.976 523.377 192.05 522.494 192.675C521.223 193.585 519.497 193.314 517.94 193.497C516.531 193.714 515.197 194.274 514.055 195.129C512.914 195.983 512.001 197.106 511.396 198.397C510.633 200.014 510.265 201.789 510.322 203.576C510.305 204.802 510.451 206.024 510.757 207.212C511.056 208.394 511.498 209.536 511.824 210.718C512.504 213.165 512.66 215.741 513.441 218.153C513.966 219.944 515.015 221.537 516.452 222.727L516.221 223.719C516.071 223.719 512.32 224.555 509.731 230.216C507.692 234.681 500.753 239.289 497.702 241.151C497.133 241.499 496.639 241.957 496.249 242.499C495.859 243.04 495.581 243.654 495.432 244.304C495.139 245.618 495.009 246.962 495.044 248.307C494.99 251.209 495.595 255.226 497.926 260.316C503.22 271.869 507.073 276.925 507.073 276.925C507.073 276.925 507.366 280.466 507.386 284.197C507.386 286.977 507.182 289.743 506.591 291.129C506.088 292.298 505.911 295.282 505.952 298.693C505.952 305.231 506.591 313.76 506.591 313.76C506.591 313.76 508.433 314.113 511.28 314.528L513.054 345.735C513.277 349.515 512.063 353.239 509.656 356.161C508.412 357.697 506.975 359.068 505.381 360.238C500.325 363.847 489.492 401.891 489.492 401.891C489.492 401.891 490.022 401.891 490.892 401.993L487.562 411.283C487.562 411.283 500.869 421.477 508.963 418.691C509.84 418.405 510.76 418.277 511.681 418.31C513.278 418.31 516.697 417.046 514.794 415.381C511.119 411.997 507.654 408.393 504.416 404.589C504.677 404.717 504.927 404.864 505.164 405.031V404.956L505.279 405.031C505.279 405.031 505.279 404.657 505.368 404.046L505.252 404.005C505.497 401.504 506.272 395.17 507.807 394.436C509.731 393.471 523.941 365.301 523.941 365.301L538.145 328.705C538.145 328.705 549.46 348.209 559.09 351.573V359.729C559.09 359.729 564.385 383.807 566.315 386.451C568.245 389.094 566.315 399.689 566.315 399.689C566.695 400.125 567.132 400.509 567.613 400.831L566.07 409.557C566.07 409.557 577.148 409.075 595.925 414.851C595.911 414.885 603.136 411.759 597.114 407.906ZM552.818 281.988L550.473 282.573L550.011 282.688C549.963 282.396 549.929 282.226 549.929 282.226C549.391 282.469 548.813 282.61 548.224 282.641C547.393 280.008 546.913 277.278 546.796 274.52C546.008 271.219 545.527 267.851 545.362 264.461C545.362 262.708 545.655 261.179 546.314 260.316L547.095 260.377L547.639 260.894L547.68 260.928L547.959 261.179L548.251 261.437L548.298 261.478L548.611 261.757L548.665 261.804L548.985 262.076L549.345 262.375L549.426 262.443L549.807 262.749L550.181 263.048L550.269 263.116L550.684 263.428L550.772 263.49L551.166 263.782L551.234 263.829L551.683 264.149L551.791 264.224L552.267 264.55H552.308L552.77 264.856L552.879 264.93L553.375 265.25L553.484 265.318L553.946 265.603L554.034 265.658L554.564 265.97L554.693 266.045L555.244 266.351H555.285L555.822 266.636L555.951 266.704L556.522 266.99L556.637 267.044L557.167 267.289L557.269 267.336L557.867 267.594L558.01 267.656L558.628 267.907C554.789 272.134 552.818 281.988 552.818 281.988Z" fill="url(#paint0_linear_596_1531)"/>
<path d="M493.434 396.271L488.969 408.728C488.969 408.728 501.202 418.107 509.154 416.163C510.351 415.865 511.572 415.667 512.803 415.572C514.448 415.449 517.282 414.246 515.521 412.724C509.881 407.79 502.357 398.622 502.357 398.622L493.434 396.271Z" fill="#4F4D59"/>
<path d="M567.708 395.095L565.595 407.083C565.595 407.083 576.407 406.615 594.743 412.255C594.743 412.255 601.797 409.197 595.919 405.459C595.919 405.459 589.123 405.928 584.875 398.663C580.628 391.398 578.079 392.316 578.079 392.316L567.708 395.095Z" fill="#4F4D59"/>
<path d="M511.75 308.133L513.788 344.614C514.012 348.501 512.724 352.324 510.193 355.284C509.05 356.643 507.747 357.859 506.313 358.906C501.379 362.433 490.797 399.567 490.797 399.567C490.797 399.567 502.786 400.247 506.075 402.625C506.075 402.625 506.755 393.226 508.657 392.282C510.56 391.337 524.404 363.84 524.404 363.84L538.275 328.113C538.275 328.113 549.318 347.142 558.724 350.445V358.437C558.724 358.437 563.896 381.945 565.778 384.527C567.661 387.11 565.778 397.44 565.778 397.44C565.778 397.44 571.215 404.236 583.638 396.971C583.638 396.971 579.642 392.506 579.88 387.096C580.118 381.687 574.443 352.076 574.443 352.076C574.443 352.076 575.123 340.795 569.509 333.727C563.896 326.659 554.565 299.658 554.565 299.658L548.095 285.74L511.75 308.133Z" fill="#C48C96"/>
<g opacity="0.1">
<path d="M493.081 399.56C493.081 399.56 503.655 362.427 508.596 358.899C510.112 357.789 511.481 356.492 512.674 355.039C515.086 352.12 516.3 348.394 516.072 344.614L513.999 308.126L548.659 286.759L548.19 285.747L511.885 308.133L513.958 344.621C514.187 348.401 512.972 352.127 510.56 355.046C509.368 356.498 507.998 357.795 506.482 358.906C501.555 362.427 490.967 399.56 490.967 399.56C490.967 399.56 502.955 400.24 506.245 402.618C506.245 402.618 506.245 402.251 506.333 401.66C501.705 400.07 493.081 399.56 493.081 399.56Z" fill="black"/>
<path d="M568.061 397.447C568.061 397.447 569.944 387.103 568.061 384.534C566.179 381.965 561.007 358.444 561.007 358.444V350.438C551.608 347.149 540.558 328.107 540.558 328.107L539.742 330.24C542.93 335.297 551.431 347.842 558.9 350.452V358.444C558.9 358.444 564.072 381.952 565.955 384.534C567.837 387.117 565.955 397.447 565.955 397.447C565.955 397.447 568.578 400.75 574.368 400.301C570.039 399.941 568.061 397.447 568.061 397.447Z" fill="black"/>
</g>
<path d="M592.623 267.234L588.008 267.54L585.575 267.703V261.825L588.769 261.247L590.747 260.887C590.747 260.887 596.863 242.789 602.735 246.078C608.607 249.367 592.623 267.234 592.623 267.234Z" fill="#714B4F"/>
<path d="M518.586 218.785C518.586 218.785 515.528 230.536 514.59 237.814C513.652 245.093 536.446 239.228 536.446 239.228C536.446 239.228 527.747 228.653 532.688 223.012L518.586 218.785Z" fill="#714B4F"/>
<path d="M543.263 267.717L543.731 272.182L536.446 271.713L529.161 265.365L521.875 244.909L517.186 237.617L513.659 233.152L515.073 227.715C515.073 227.715 515.718 228.279 516.806 229.108C520.387 231.827 528.78 237.542 534.917 235.966C535.201 235.894 535.48 235.806 535.753 235.701L544.921 251.447L543.263 267.717Z" fill="#E6E6F0"/>
<path opacity="0.1" d="M516.942 226.336C516.942 226.336 513.184 227.015 510.594 232.683C508.61 237.019 501.895 241.518 498.898 243.333C498.326 243.682 497.83 244.142 497.439 244.686C497.048 245.23 496.77 245.846 496.622 246.5C496.017 249.177 495.786 254.172 499.075 261.356C504.247 272.637 508.005 277.571 508.005 277.571C508.005 277.571 508.943 288.853 507.536 292.142C506.129 295.431 507.536 313.529 507.536 313.529C507.536 313.529 532.212 318.232 540.442 313.529C548.672 308.826 547.497 290.728 547.497 290.728C547.497 290.728 555.251 307.182 558.071 307.65L556.427 298.483C556.427 298.483 547.259 288.608 546.79 275.92C546.79 275.92 543.97 264.4 546.321 261.349C546.321 261.349 586.044 264.638 588.395 261.818C588.395 261.818 562.305 260.642 558.309 254.295C558.309 254.295 546.79 245.127 546.321 239.017C546.253 237.87 545.893 236.76 545.276 235.79C544.659 234.821 543.804 234.025 542.794 233.478C541.195 232.569 539.361 232.159 537.527 232.303L532.219 232.67C532.219 232.67 541.387 248.885 540.918 251.019C540.449 253.153 541.387 270.293 541.387 270.293C541.387 270.293 530.779 247.492 526.11 244.909C521.441 242.327 515.997 231.698 515.997 231.698L516.935 226.329" fill="black"/>
<path opacity="0.1" d="M543.263 267.717L543.731 272.182L536.446 271.713L529.161 265.365L521.875 244.909L517.186 237.617L513.659 233.152L515.073 227.715C515.073 227.715 515.718 228.279 516.806 229.108L516.479 230.964C516.479 230.964 521.916 241.579 526.585 244.169C531.254 246.758 541.863 269.552 541.863 269.552C541.863 269.552 540.925 252.392 541.394 250.278C541.713 248.844 537.595 240.92 534.917 235.966C535.201 235.894 535.48 235.806 535.753 235.701L544.921 251.447L543.263 267.717Z" fill="black"/>
<path opacity="0.1" d="M588.008 267.54L585.575 267.703V261.825L588.769 261.247C587.655 262.722 587.696 265.331 588.008 267.54Z" fill="black"/>
<path d="M516.942 225.636C516.942 225.636 513.184 226.315 510.594 231.983C508.61 236.319 501.895 240.818 498.898 242.633C498.326 242.982 497.83 243.442 497.439 243.986C497.048 244.53 496.77 245.146 496.622 245.8C496.017 248.477 495.786 253.472 499.075 260.656C504.247 271.937 508.005 276.871 508.005 276.871C508.005 276.871 508.943 288.153 507.536 291.442C506.129 294.731 507.536 312.829 507.536 312.829C507.536 312.829 532.212 317.532 540.442 312.829C548.672 308.126 547.497 290.028 547.497 290.028C547.497 290.028 555.244 306.454 558.071 306.957L556.427 297.789C556.427 297.789 547.259 287.915 546.79 275.226C546.79 275.226 543.97 263.707 546.321 260.656C546.321 260.656 555.489 270.53 565.833 270.293C573.37 270.247 580.904 270.64 588.395 271.468C588.395 271.468 586.044 263.945 588.395 261.125C588.395 261.125 562.305 259.949 558.309 253.601C558.309 253.601 546.79 244.434 546.321 238.324C546.253 237.177 545.893 236.066 545.276 235.097C544.659 234.128 543.804 233.332 542.794 232.785C541.195 231.876 539.361 231.466 537.527 231.609L532.219 231.976C532.219 231.976 541.387 248.192 540.918 250.326C540.449 252.46 541.387 269.599 541.387 269.599C541.387 269.599 530.779 246.785 526.11 244.202C521.441 241.62 515.997 231.018 515.997 231.018L516.935 225.649" fill="#C48C96"/>
<path opacity="0.1" d="M511.749 250.312C511.749 250.312 517.39 269.341 520.679 271.699C523.969 274.058 543.949 286.039 549.828 283.219C549.828 283.219 551.241 290.273 549.148 291.918C549.148 291.918 527.231 291.061 527.054 290.98C527.054 290.98 512.714 289.097 510.363 282.05C508.012 275.002 505.191 263.021 505.191 263.021L511.749 250.312Z" fill="black"/>
<path d="M541.856 271.822C542.31 271.822 542.678 271.295 542.678 270.646C542.678 269.997 542.31 269.47 541.856 269.47C541.402 269.47 541.034 269.997 541.034 270.646C541.034 271.295 541.402 271.822 541.856 271.822Z" fill="#BA7855"/>
<path d="M544.2 280.045C544.654 280.045 545.023 279.518 545.023 278.869C545.023 278.22 544.654 277.693 544.2 277.693C543.746 277.693 543.378 278.22 543.378 278.869C543.378 279.518 543.746 280.045 544.2 280.045Z" fill="#BA7855"/>
<g opacity="0.1">
<path d="M509.187 312.571C509.187 312.571 507.774 294.473 509.187 291.184C510.601 287.894 509.656 276.613 509.656 276.613C509.656 276.613 505.898 271.679 500.726 260.397C497.43 253.214 497.668 248.219 498.273 245.541C498.422 244.888 498.7 244.271 499.091 243.727C499.482 243.183 499.978 242.723 500.55 242.374C503.547 240.539 510.254 236.061 512.246 231.725C513.707 228.544 515.535 226.934 516.853 226.132L516.942 225.615C516.942 225.615 513.184 226.295 510.594 231.963C508.61 236.299 501.895 240.798 498.898 242.612C498.326 242.961 497.83 243.421 497.439 243.965C497.048 244.509 496.77 245.126 496.622 245.779C496.017 248.457 495.786 253.452 499.075 260.635C504.247 271.917 508.005 276.851 508.005 276.851C508.005 276.851 508.943 288.132 507.536 291.421C506.129 294.711 507.536 312.809 507.536 312.809C507.536 312.809 525.165 316.166 535.59 314.365C525.063 315.622 509.187 312.571 509.187 312.571Z" fill="black"/>
<path d="M540.912 250.312C540.592 251.76 540.912 260.275 541.177 265.495C542.312 267.812 543.025 269.355 543.025 269.355C543.025 269.355 542.087 252.195 542.556 250.081C543.005 248.042 534.748 233.322 533.925 231.868L532.213 231.983C532.213 231.983 541.387 248.199 540.912 250.312Z" fill="black"/>
<path d="M567.477 270.055C557.133 270.293 547.966 260.418 547.966 260.418C547.691 260.801 547.49 261.232 547.374 261.689C550.093 264.217 557.568 270.476 565.832 270.286C573.37 270.24 580.903 270.633 588.395 271.462C588.395 271.462 588.348 271.305 588.273 271.04C581.365 270.326 574.422 269.997 567.477 270.055Z" fill="black"/>
<path d="M549.128 289.797C549.128 289.797 549.223 291.265 549.169 293.467C551.615 298.32 556.067 306.617 558.058 306.95L557.711 305.02C554.293 300.725 549.128 289.797 549.128 289.797Z" fill="black"/>
</g>
<path d="M555.72 287.425L550.725 288.479L546.783 289.308L548.897 283.429L550.372 283.062L552.662 282.491C552.662 282.491 555.951 266.038 562.536 267.214C569.122 268.39 555.72 287.425 555.72 287.425Z" fill="#714B4F"/>
<path opacity="0.1" d="M550.731 288.499L546.79 289.328L548.903 283.45L550.378 283.083C550.705 284.868 550.824 286.686 550.731 288.499Z" fill="black"/>
<path d="M511.749 249.843C511.749 249.843 517.39 268.872 520.679 271.23C523.969 273.589 543.949 285.57 549.828 282.75C549.828 282.75 551.241 289.804 549.148 291.449C549.148 291.449 527.231 290.592 527.054 290.511C527.054 290.511 512.714 288.628 510.363 281.581C508.012 274.533 505.191 262.552 505.191 262.552L511.749 249.843Z" fill="#C48C96"/>
<path opacity="0.1" d="M518.817 219.288C518.817 219.288 518.341 221.13 517.703 223.807C519.004 226.273 521.081 228.241 523.612 229.408C526.144 230.575 528.99 230.876 531.709 230.264C531.145 227.851 531.268 225.411 532.919 223.522L518.817 219.288Z" fill="black"/>
<path d="M528.692 230.101C535.703 230.101 541.387 224.417 541.387 217.406C541.387 210.394 535.703 204.711 528.692 204.711C521.681 204.711 515.997 210.394 515.997 217.406C515.997 224.417 521.681 230.101 528.692 230.101Z" fill="#714B4F"/>
<path opacity="0.1" d="M539.715 213.913C540.635 214.169 541.598 214.23 542.542 214.089C543.52 213.825 544.385 213.248 545.006 212.447C545.626 211.646 545.969 210.665 545.981 209.651C545.963 208.638 545.719 207.642 545.266 206.735C544.813 205.829 544.164 205.035 543.365 204.412C542.291 203.515 541.006 202.883 540.021 201.884C538.859 200.694 538.22 199.104 537.302 197.704C535.791 195.389 533.55 193.645 530.935 192.75C528.991 192.07 526.605 192.016 525.11 193.429C524.342 194.156 523.894 195.196 523.038 195.815C521.794 196.698 520.108 196.44 518.593 196.617C517.22 196.825 515.919 197.368 514.805 198.198C513.691 199.027 512.798 200.118 512.205 201.374C511.045 203.934 510.824 206.822 511.579 209.529C511.872 210.684 512.307 211.799 512.619 212.927C513.299 215.319 513.435 217.827 514.196 220.185C514.957 222.544 516.527 224.854 518.906 225.561C518.718 222.914 519.241 220.265 520.421 217.888C520.615 217.368 520.999 216.941 521.495 216.692C521.918 216.583 522.363 216.583 522.786 216.692C525.767 217.133 528.808 216.518 531.383 214.952C532.287 214.409 533.694 212.533 534.652 212.349C535.889 212.139 538.424 213.627 539.715 213.913Z" fill="black"/>
<path d="M539.715 213.444C540.635 213.7 541.598 213.761 542.542 213.62C543.52 213.356 544.385 212.779 545.006 211.978C545.626 211.177 545.969 210.196 545.981 209.182C545.963 208.169 545.719 207.173 545.266 206.266C544.813 205.36 544.164 204.566 543.365 203.943C542.291 203.046 541.006 202.414 540.021 201.415C538.859 200.225 538.22 198.635 537.302 197.235C535.791 194.92 533.55 193.176 530.935 192.281C528.991 191.601 526.605 191.547 525.11 192.96C524.342 193.687 523.894 194.727 523.038 195.346C521.794 196.229 520.108 195.971 518.593 196.148C517.22 196.356 515.919 196.899 514.805 197.729C513.691 198.558 512.798 199.649 512.205 200.905C511.045 203.465 510.824 206.353 511.579 209.06C511.872 210.215 512.307 211.33 512.619 212.458C513.299 214.85 513.435 217.358 514.196 219.716C514.957 222.075 516.527 224.385 518.906 225.092C518.723 222.446 519.251 219.8 520.435 217.426C520.629 216.906 521.013 216.479 521.508 216.23C521.932 216.121 522.376 216.121 522.8 216.23C525.781 216.671 528.822 216.055 531.397 214.49C532.301 213.946 533.707 212.071 534.666 211.887C535.889 211.67 538.424 213.158 539.715 213.444Z" fill="#503F43"/>
<path d="M666.36 171.546L656.003 287.554L609.45 300.467L563.026 287.554L552.682 171.546H666.36Z" fill="#E44D26"/>
<path d="M609.518 290.599L647.134 280.174L655.969 181.033H609.518V290.599Z" fill="#F16529"/>
<path d="M589.388 209.495H609.517V195.264H573.838L574.178 199.084L577.678 238.297H609.524V224.066H590.692L589.388 209.495ZM592.622 245.412H578.351L580.342 267.758L609.456 275.872H609.524V261.023H609.463L593.615 256.741L592.622 245.412Z" fill="#EBEBEB"/>
<path d="M609.47 238.297H626.99L625.339 256.755L609.47 261.036V275.872L638.645 267.785L638.856 265.379L642.199 227.912L642.546 224.093H609.47V238.324V238.297ZM609.47 209.461V209.495H643.844L644.13 206.294L644.809 199.077L645.149 195.257H609.47V209.454V209.461Z" fill="white"/>
<path d="M249.232 257.19C247.907 253.309 245.997 248.355 244.475 247.227C244.383 247.153 244.282 247.092 244.176 247.043H243.985V242.252L240.411 242.823C239.837 241.091 239.403 239.316 239.112 237.515C239.457 237.86 239.896 238.095 240.373 238.19C240.851 238.286 241.346 238.238 241.797 238.052C241.736 237.957 241.688 237.855 241.634 237.753L241.797 237.685C241.234 236.692 240.937 235.571 240.934 234.43C240.964 233.388 241.13 232.356 241.43 231.358C242.069 229.149 243.149 227.083 243.754 224.868C244.141 223.437 244.324 221.959 244.298 220.477C244.316 217.967 243.743 215.488 242.626 213.24C242.349 212.593 241.914 212.025 241.362 211.588C240.859 211.31 240.342 211.058 239.812 210.834C238.926 210.237 238.163 209.476 237.563 208.591C235.024 205.5 231.626 203.232 227.797 202.074C226.8 201.704 225.72 201.619 224.678 201.829C222.279 202.509 221.402 205.451 219.458 207.008C217.739 208.367 215.381 208.523 213.233 208.985C211.028 209.36 208.999 210.424 207.436 212.023C206.42 213.185 205.866 214.68 205.88 216.223C205.821 216.943 205.949 217.666 206.25 218.323C206.551 218.98 207.015 219.549 207.599 219.975C208.264 220.411 209.016 220.696 209.804 220.807C210.591 220.919 211.393 220.855 212.153 220.62C211.559 222.67 211.396 224.82 211.673 226.936C211.949 229.052 212.66 231.088 213.761 232.916C214.862 234.744 216.328 236.325 218.069 237.56C219.81 238.795 221.786 239.656 223.876 240.091L224.297 240.838C225.582 243.236 226.558 245.786 227.199 248.43C223.91 250.299 220.315 252.045 218.147 252.208C218.061 253.056 217.904 253.895 217.678 254.716C217.171 256.779 216.197 258.697 214.83 260.323C211.881 263.639 198.608 288.717 198.608 288.717C198.608 288.717 198.187 289.716 197.507 291.435C189.263 292.448 175.814 293.909 172.056 293.154L157.308 279.141C157.308 279.141 152.551 282.777 152.959 287.194L150.302 284.666C150.302 284.666 136.288 295.356 158.416 302.336L192.084 306.244C188.876 315.921 185.886 327.182 186.81 333.312H187.089C187.733 333.311 188.376 333.261 189.012 333.163L188.951 334.25L185.709 392.309C185.709 392.309 184.968 402.999 194.925 407.797C194.925 407.797 207.096 443.565 202.298 447.622C202.298 447.622 202.869 447.921 203.827 448.342L193.817 457.177C193.817 457.177 186.443 459.019 182.386 458.652C181.673 458.555 180.949 458.723 180.352 459.126C179.756 459.528 179.328 460.136 179.151 460.833C179.151 460.908 179.151 460.983 179.11 461.064V461.16C179.11 461.234 179.11 461.316 179.11 461.397C179.11 461.479 179.11 461.459 179.11 461.486C179.11 461.513 179.11 461.622 179.11 461.69V461.778C179.11 461.86 179.11 461.934 179.158 462.016V462.104C179.18 462.19 179.208 462.274 179.239 462.356V462.437C179.273 462.519 179.314 462.6 179.355 462.682V462.736C179.402 462.818 179.45 462.899 179.504 462.981L179.552 463.049C179.611 463.135 179.677 463.221 179.749 463.307L179.803 463.375C179.878 463.463 179.96 463.545 180.048 463.633H180.089L180.361 463.864L180.422 463.912L180.755 464.15L180.836 464.204L181.224 464.428H181.285L181.699 464.632H181.761L182.243 464.829L182.345 464.87L182.882 465.047H182.97L183.548 465.196H183.596L184.275 465.326H184.404L185.084 465.427H185.213L185.995 465.502C187.51 465.618 189.556 465.659 191.921 465.652C191.921 465.652 191.921 465.713 191.921 465.74C191.921 465.767 191.921 465.876 191.921 465.944V466.032C191.921 466.114 191.921 466.189 191.968 466.27V466.359C191.991 466.445 192.018 466.528 192.05 466.61V466.692C192.084 466.773 192.125 466.855 192.165 466.936V466.991C192.213 467.072 192.261 467.154 192.315 467.235L192.362 467.303C192.421 467.389 192.487 467.475 192.56 467.561L192.614 467.629C192.689 467.718 192.77 467.799 192.859 467.888H192.893L193.164 468.119L193.226 468.166L193.559 468.404L193.64 468.459L194.021 468.683H194.082L194.496 468.887H194.558L195.04 469.084L195.142 469.125L195.679 469.301H195.767L196.345 469.451H196.393L197.072 469.58H197.201L197.881 469.682H198.01L198.792 469.757C208.381 470.497 238.983 468.282 238.983 468.282V468.193V468.085C239.289 466.658 240.757 458.36 235.538 452.223C235.694 452.06 235.844 451.89 235.986 451.713C235.986 451.713 231.909 444.706 234.145 442.498C236.38 440.289 223.346 402.279 223.346 402.279C223.346 402.279 216.339 391.215 220.396 378.676C224.453 366.137 220.029 352.498 220.029 352.498C220.029 352.498 229.714 349.63 229.89 337.716C229.89 337.356 229.89 336.982 229.89 336.608C230.093 336.638 230.297 336.652 230.502 336.649C230.638 336.659 230.774 336.659 230.91 336.649C230.91 336.649 229.068 330.009 231.277 325.218C233.485 320.427 238.283 324.851 242.708 305.306C245.909 291.163 248.722 274.9 250.041 266.983C250.582 263.702 250.304 260.338 249.232 257.19ZM165.083 298.646L161.719 295.451C162.834 295.914 164.071 296.362 165.45 296.811L178.125 298.299C172.47 298.809 167.19 299.094 165.083 298.666V298.646Z" fill="url(#paint1_linear_596_1531)"/>
<path d="M197.181 296.783C197.181 296.783 171.097 300.406 165.66 299.318L151.171 285.55C151.171 285.55 137.402 296.056 159.143 302.941L199.715 307.65L197.181 296.783Z" fill="#FDC2CC"/>
<path opacity="0.05" d="M197.181 296.783C197.181 296.783 171.097 300.406 165.66 299.318L151.171 285.55C151.171 285.55 137.402 296.056 159.143 302.941L199.715 307.65L197.181 296.783Z" fill="black"/>
<path d="M146.122 305.924L89.7554 290.293L77.1963 149.411H215.217L202.645 290.273L146.122 305.924Z" fill="#264DE4"/>
<path d="M191.879 281.309L202.624 160.937H146.217V293.943L191.879 281.309Z" fill="#2965F1"/>
<path d="M106.025 213.165L107.574 230.44H146.244V213.165H106.025ZM102.912 178.192L104.482 195.468H146.237V178.192H102.878H102.912ZM146.237 258.039H146.162L126.916 252.84L125.686 239.058H108.308L110.728 266.188L146.122 276.035H146.203L146.237 258.039Z" fill="#EBEBEB"/>
<path d="M109.682 111.109H130.607V119.862H118.428V128.615H130.607V137.369H109.682V111.109ZM134.827 111.109H155.752V118.72H143.546V120.243H155.725V137.749H134.793V129.757H146.972V128.235H134.793V111.109H134.827ZM159.972 111.109H180.897V118.72H168.658V120.243H180.836V137.749H159.904V129.757H172.083V128.235H159.904V111.109H159.972Z" fill="black"/>
<path d="M186.314 213.165L189.433 178.192H146.122V195.468H170.472L168.902 213.138H146.122V230.413H167.401L165.362 252.84L146.122 258.053V276.028L181.543 266.208L181.801 263.286L185.879 217.793L186.3 213.151L186.314 213.165Z" fill="white"/>
<path d="M206.607 443.864L193.925 455.091C193.925 455.091 186.681 456.905 182.698 456.538C178.716 456.171 176.901 462.695 186.32 463.423C195.74 464.15 225.806 461.975 225.806 461.975C225.806 461.975 228.701 450.381 220.009 443.864H206.607Z" fill="#47465A"/>
<path opacity="0.05" d="M206.607 443.864L193.925 455.091C193.925 455.091 186.681 456.905 182.698 456.538C178.716 456.171 176.901 462.695 186.32 463.423C195.74 464.15 225.806 461.975 225.806 461.975C225.806 461.975 228.701 450.381 220.009 443.864H206.607Z" fill="black"/>
<path opacity="0.3" d="M226.254 456.966C226.232 458.288 226.08 459.603 225.798 460.894C225.798 460.894 195.733 463.069 186.313 462.342C181.78 461.995 179.857 460.303 179.517 458.686C179.103 460.548 180.747 463.001 186.313 463.443C195.733 464.17 225.798 461.995 225.798 461.995C226.153 460.344 226.306 458.655 226.254 456.966Z" fill="white"/>
<path d="M221.449 238.494C221.449 238.494 229.421 249.721 226.519 257.332C223.617 264.944 241.735 249.361 241.735 249.361C241.735 249.361 235.938 239.173 238.84 228.3L221.449 238.494Z" fill="#FDC2CC"/>
<path d="M219.275 448.213L206.607 459.44C206.607 459.44 199.363 461.255 195.38 460.888C191.398 460.521 189.583 467.045 199.003 467.772C208.422 468.499 238.488 466.325 238.488 466.325C238.488 466.325 241.383 454.731 232.691 448.213H219.275Z" fill="#47465A"/>
<path d="M222.917 445.678C221.028 448.009 218.364 448.906 215.577 449.042C209.243 449.341 202.271 445.678 202.271 445.678C206.98 441.696 195.026 406.553 195.026 406.553C185.247 401.844 185.967 391.337 185.967 391.337L189.134 334.318L189.936 319.992L200.082 313.835L208.075 319.951L215.659 325.769C216.153 327.619 216.472 329.513 216.61 331.423C217.494 344.736 206.967 347.869 206.967 347.869C206.967 347.869 211.316 361.271 207.327 373.593C203.338 385.914 210.222 396.781 210.222 396.781C210.222 396.781 223.264 434.458 221.096 436.633C218.928 438.807 222.917 445.678 222.917 445.678Z" fill="#565171"/>
<path opacity="0.05" d="M222.917 445.678C221.028 448.009 218.364 448.906 215.577 449.042C209.243 449.341 202.271 445.678 202.271 445.678C206.98 441.696 195.026 406.553 195.026 406.553C185.247 401.844 185.967 391.337 185.967 391.337L189.134 334.318L189.936 319.992L200.082 313.835L208.075 319.951L215.659 325.769C216.153 327.619 216.472 329.513 216.61 331.423C217.494 344.736 206.967 347.869 206.967 347.869C206.967 347.869 211.316 361.271 207.327 373.593C203.338 385.914 210.222 396.781 210.222 396.781C210.222 396.781 223.264 434.458 221.096 436.633C218.928 438.807 222.917 445.678 222.917 445.678Z" fill="black"/>
<path d="M235.579 450.021C229.421 457.626 214.932 450.021 214.932 450.021C215.224 449.752 215.442 449.413 215.564 449.035C218.222 441.811 206.6 407.274 206.6 407.274C196.821 402.564 195.727 391.337 195.727 391.337L193.165 333.285L192.832 325.769L208.075 319.951L212.758 318.164L228.354 330.118C229.024 332.595 229.353 335.151 229.333 337.716C229.136 349.412 219.642 352.239 219.642 352.239C219.642 352.239 223.991 365.641 220.002 377.962C216.013 390.284 222.918 401.117 222.918 401.117C222.918 401.117 235.959 438.794 233.791 440.969C231.623 443.143 235.579 450.021 235.579 450.021Z" fill="#565171"/>
<path opacity="0.1" d="M229.332 337.716C226.199 337.268 219.859 333.496 216.603 331.45C215.36 330.669 214.565 330.145 214.565 330.145C214.565 330.145 211.302 321.086 202.61 327.971C199.783 330.267 196.589 332.073 193.164 333.312C191.855 333.776 190.506 334.115 189.134 334.325L189.936 319.999L200.082 313.842L208.074 319.958L212.757 318.171L228.354 330.118C229.023 332.595 229.353 335.151 229.332 337.716Z" fill="black"/>
<path d="M248.94 268.199C247.649 275.974 244.862 291.985 241.736 305.843C237.387 325.041 232.677 320.692 230.509 325.402C228.341 330.111 230.149 336.629 230.149 336.629C226.526 336.989 214.572 329.024 214.572 329.024C214.572 329.024 211.31 319.965 202.618 326.849C193.926 333.734 187.041 333.367 187.041 333.367C185.227 321.412 198.635 289.532 198.635 289.532C198.635 289.532 211.677 264.896 214.572 261.668C215.916 260.073 216.874 258.189 217.372 256.164C217.595 255.358 217.749 254.535 217.834 253.703C222.544 253.343 234.145 245.371 234.145 245.371L243.204 243.924V248.634C243.311 248.681 243.412 248.743 243.503 248.817C244.991 249.952 246.901 254.791 248.172 258.603C249.212 261.69 249.476 264.986 248.94 268.199Z" fill="#E1A0A7"/>
<path d="M206.607 302.22L201.924 301.677L166.035 297.511C144.287 290.626 158.063 280.12 158.063 280.12L172.552 293.888C176.732 294.724 193.13 292.774 200.477 291.85C202.679 291.564 204.072 291.374 204.072 291.374L206.607 302.22Z" fill="#FDC2CC"/>
<path opacity="0.1" d="M241.735 253.316C241.735 253.316 232.316 245.711 218.16 270.34C204.003 294.969 200.769 290.987 200.769 290.987C200.769 290.987 203.664 301.86 202.216 304.028C202.216 304.028 211.996 303.301 215.618 304.028C219.24 304.755 241.701 276.497 241.701 276.497C241.701 276.497 253.329 260.561 241.735 253.316Z" fill="black"/>
<path opacity="0.1" d="M241.375 251.868C241.375 251.868 231.956 244.264 217.827 268.893C203.698 293.521 200.436 289.539 200.436 289.539C200.436 289.539 211.663 301.853 215.285 302.581C218.908 303.308 241.369 275.05 241.369 275.05C241.369 275.05 252.969 259.113 241.375 251.868Z" fill="black"/>
<path opacity="0.1" d="M201.917 301.697C202.067 299.013 201.054 294.296 200.47 291.85C202.672 291.564 204.065 291.374 204.065 291.374L206.6 302.248L201.917 301.697Z" fill="black"/>
<path d="M241.735 252.589C241.735 252.589 232.316 244.984 218.16 269.62C204.003 294.255 200.769 290.266 200.769 290.266C200.769 290.266 203.664 301.14 202.216 303.308C202.216 303.308 211.996 302.581 215.618 303.308C219.24 304.035 241.701 275.777 241.701 275.777C241.701 275.777 253.329 259.833 241.735 252.589Z" fill="#E1A0A7"/>
<path opacity="0.1" d="M239.227 229.04L221.809 239.173C222.546 240.242 223.227 241.35 223.848 242.49C224.85 242.693 225.87 242.796 226.893 242.796C231.534 242.796 233.689 237.923 236.495 234.64C236.291 232.031 238.425 231.963 239.227 229.04Z" fill="black"/>
<path d="M226.519 242.089C234.923 242.089 241.735 235.276 241.735 226.873C241.735 218.469 234.923 211.656 226.519 211.656C218.115 211.656 211.303 218.469 211.303 226.873C211.303 235.276 218.115 242.089 226.519 242.089Z" fill="#FDC2CC"/>
<path opacity="0.1" d="M207.287 214.565C208.821 212.991 210.815 211.944 212.982 211.575C215.096 211.119 217.413 210.983 219.098 209.631C221.008 208.102 221.864 205.193 224.223 204.541C225.247 204.336 226.309 204.42 227.288 204.785C231.049 205.922 234.389 208.15 236.884 211.187C237.474 212.059 238.226 212.808 239.099 213.396C239.619 213.616 240.127 213.863 240.621 214.137C241.163 214.567 241.588 215.125 241.858 215.761C243.556 219.191 243.948 223.121 242.959 226.818C242.368 229 241.308 231.025 240.676 233.2C240.044 235.374 239.888 237.835 241.036 239.778C239.922 240.349 238.515 239.629 237.815 238.589C237.115 237.549 236.904 236.271 236.537 235.069C235.815 232.707 234.456 230.591 232.609 228.952C231.467 227.946 229.428 227.267 228.633 228.565C228.327 229.068 228.348 229.713 228.083 230.237C227.566 231.263 226.044 231.467 225.072 230.916C224.115 230.256 223.443 229.258 223.19 228.123C221.701 223.074 219.153 219.9 213.757 222.054C211.718 222.856 209.373 223.413 207.436 222.054C204.956 220.233 205.452 216.624 207.287 214.565Z" fill="black"/>
<path d="M207.287 214.198C208.821 212.624 210.815 211.577 212.982 211.208C215.096 210.752 217.413 210.616 219.098 209.264C221.008 207.735 221.864 204.826 224.223 204.174C225.247 203.969 226.309 204.054 227.288 204.418C231.049 205.555 234.389 207.784 236.884 210.82C237.474 211.692 238.226 212.441 239.099 213.029C239.619 213.249 240.127 213.496 240.621 213.77C241.163 214.2 241.588 214.758 241.858 215.394C243.556 218.824 243.948 222.754 242.959 226.451C242.368 228.633 241.308 230.658 240.676 232.833C240.044 235.007 239.888 237.468 241.036 239.411C239.922 239.982 238.515 239.262 237.815 238.222C237.115 237.182 236.904 235.905 236.537 234.702C235.815 232.34 234.456 230.224 232.609 228.585C231.467 227.579 229.428 226.9 228.633 228.198C228.327 228.701 228.348 229.346 228.083 229.87C227.566 230.896 226.044 231.1 225.072 230.549C224.115 229.889 223.443 228.891 223.19 227.756C221.701 222.707 219.153 219.533 213.757 221.687C211.718 222.489 209.373 223.046 207.436 221.687C204.956 219.873 205.452 216.264 207.287 214.198Z" fill="#8F5A6A"/>
<path opacity="0.05" d="M243.482 248.79H236.122C236.122 248.79 221.633 256.034 221.272 255.674C221.028 255.43 218.785 255.851 217.365 256.143C217.587 255.337 217.742 254.514 217.827 253.683C222.537 253.323 234.137 245.351 234.137 245.351L243.197 243.903V248.613C243.299 248.66 243.395 248.719 243.482 248.79Z" fill="black"/>
<path opacity="0.3" d="M238.929 461.309C238.908 462.63 238.755 463.946 238.474 465.237C238.474 465.237 208.408 467.412 198.989 466.685C194.456 466.338 192.532 464.646 192.193 463.029C191.778 464.891 193.423 467.344 198.989 467.786C208.408 468.513 238.474 466.338 238.474 466.338C238.828 464.686 238.981 462.998 238.929 461.309Z" fill="white"/>
<g opacity="0.05">
<path d="M199.171 326.489C194.285 330.363 189.963 331.926 187.122 332.605C187.122 332.877 187.176 333.142 187.217 333.401C187.217 333.401 194.102 333.761 202.794 326.883C204.141 325.729 205.733 324.897 207.449 324.45C205.553 323.519 202.848 323.58 199.171 326.489Z" fill="black"/>
<path d="M248.335 258.569C247.036 254.757 245.154 249.925 243.666 248.783C243.574 248.709 243.474 248.647 243.367 248.599C243.367 248.599 240.37 248.701 240.471 248.783C241.96 249.918 243.414 254.397 244.712 258.202C245.764 261.296 246.035 264.602 245.501 267.826C244.209 275.6 241.423 291.612 238.297 305.469C233.947 324.668 229.238 320.318 227.07 325.028C225.289 328.888 226.179 333.958 226.567 335.664C227.738 336.25 229.023 336.577 230.332 336.622C230.332 336.622 228.517 330.105 230.692 325.395C232.867 320.685 237.576 325.035 241.919 305.836C245.066 291.945 247.832 275.933 249.123 268.193C249.657 264.969 249.386 261.663 248.335 258.569Z" fill="black"/>
</g>
<path d="M290.436 326.238C291.682 325.222 292.589 323.852 293.039 322.309C293.379 320.746 292.713 318.877 291.218 318.307C289.546 317.668 287.758 318.823 286.406 319.999C285.054 321.175 283.497 322.507 281.724 322.255C282.635 321.429 283.317 320.38 283.703 319.212C284.089 318.043 284.166 316.795 283.925 315.588C283.849 315.088 283.637 314.618 283.314 314.229C282.383 313.237 280.704 313.665 279.59 314.446C276.056 316.934 275.07 321.732 275.05 326.054C274.696 324.498 274.995 322.874 274.982 321.297C274.968 319.72 274.533 317.899 273.188 317.07C272.353 316.621 271.416 316.399 270.469 316.424C268.879 316.363 267.112 316.526 266.025 317.688C264.665 319.129 265.026 321.555 266.201 323.125C267.377 324.695 269.158 325.707 270.802 326.808C272.12 327.592 273.245 328.663 274.092 329.941C274.191 330.119 274.273 330.305 274.336 330.499H284.292C286.523 329.362 288.59 327.929 290.436 326.238Z" fill="#6C63FF"/>
<path d="M308.725 453.847C310.308 452.372 311.796 450.632 312.259 448.519C312.721 446.405 311.817 443.864 309.792 443.082C307.528 442.212 305.102 443.762 303.267 445.372C301.432 446.983 299.326 448.77 296.927 448.431C298.162 447.31 299.086 445.888 299.609 444.304C300.132 442.72 300.236 441.028 299.91 439.392C299.805 438.716 299.518 438.082 299.081 437.557C297.824 436.198 295.54 436.789 294.038 437.849C289.281 441.247 287.922 447.724 287.888 453.582C287.405 451.468 287.813 449.267 287.8 447.099C287.786 444.931 287.195 442.532 285.367 441.363C284.228 440.751 282.948 440.451 281.656 440.493C279.502 440.411 277.103 440.629 275.635 442.205C273.806 444.163 274.275 447.445 275.872 449.6C277.47 451.754 279.882 453.106 282.104 454.595C283.889 455.658 285.41 457.11 286.556 458.842C286.692 459.084 286.803 459.339 286.889 459.603H300.393C303.417 458.069 306.219 456.133 308.725 453.847Z" fill="#6C63FF"/>
<defs>
<linearGradient id="paint0_linear_596_1531" x1="546.497" y1="419.167" x2="546.497" y2="189.086" gradientUnits="userSpaceOnUse">
<stop stop-color="#808080" stop-opacity="0.25"/>
<stop offset="0.54" stop-color="#808080" stop-opacity="0.12"/>
<stop offset="1" stop-color="#808080" stop-opacity="0.1"/>
</linearGradient>
<linearGradient id="paint1_linear_596_1531" x1="198.132" y1="470.28" x2="198.132" y2="201.693" gradientUnits="userSpaceOnUse">
<stop stop-color="#808080" stop-opacity="0.25"/>
<stop offset="0.54" stop-color="#808080" stop-opacity="0.12"/>
<stop offset="1" stop-color="#808080" stop-opacity="0.1"/>
</linearGradient>
</defs>
</svg>
