<svg xmlns="http://www.w3.org/2000/svg" x="0px" y="0px" width="50" height="50" viewBox="0 0 100 100">
<path d="M39.438,92c-3.043,0-5.716-2.159-6.355-5.134l-0.586-2.727l-2.469,1.649	c-1.071,0.717-2.32,1.096-3.61,1.096c-1.734,0-3.366-0.675-4.594-1.9L12.52,75.68c-2.187-2.186-2.526-5.637-0.809-8.207l2.664-5.598	l-3,0.375C8.4,61.611,5.5,61.106,5.5,58.063V45.042c0-3.044,2.159-5.717,5.135-6.355l2.726-0.585l-1.649-2.469	c-1.717-2.571-1.377-6.022,0.809-8.208l9.301-9.301c1.229-1.229,2.861-1.904,4.597-1.904c1.29,0,2.539,0.379,3.611,1.097	l2.468,1.649l0.586-2.727c0.639-2.975,3.312-5.134,6.355-5.134h6.328c3.584,0,6.5,2.916,6.5,6.5v9.521v8.399	c1.439,0.625,2.778,1.438,3.984,2.408V33.5c0-3.584,2.916-6.5,6.5-6.5h5.787c1.941-2.54,4.992-4.125,8.338-4.125	c5.79,0,10.5,4.71,10.5,10.5c0,3.072-1.325,5.839-3.435,7.761c4.988,0.811,8.81,5.149,8.81,10.364	c0,5.603-4.411,10.194-9.942,10.485C85.352,63.903,87,66.95,87,70.375c0,5.79-4.71,10.5-10.5,10.5c-3.43,0-6.517-1.633-8.444-4.25	h-0.931c-3.584,0-6.5-2.916-6.5-6.5V59.972c-1.859,3.367-4.801,6.064-8.359,7.608V85.5c0,3.584-2.916,6.5-6.5,6.5H39.438z" opacity=".35"></path><path fill="#f2f2f2" d="M37.438,90c-3.043,0-5.716-2.159-6.355-5.134l-0.586-2.727l-2.469,1.649	c-1.071,0.717-2.32,1.096-3.61,1.096c-1.734,0-3.366-0.675-4.594-1.9L10.52,73.68c-2.187-2.186-2.526-5.637-0.809-8.207l1.65-2.469	l-2.728-0.586C5.659,61.779,3.5,59.106,3.5,56.063V43.042c0-3.044,2.159-5.717,5.135-6.355l2.726-0.585l-1.649-2.469	c-1.717-2.571-1.377-6.022,0.809-8.208l9.301-9.301c1.229-1.229,2.861-1.904,4.597-1.904c1.29,0,2.539,0.379,3.611,1.097	l2.468,1.649l0.586-2.727c0.639-2.975,3.312-5.134,6.355-5.134h6.328c3.584,0,6.5,2.916,6.5,6.5v9.521v8.399	c1.439,0.625,2.778,1.438,3.984,2.408V31.5c0-3.584,2.916-6.5,6.5-6.5h5.787c1.941-2.54,4.992-4.125,8.338-4.125	c5.79,0,10.5,4.71,10.5,10.5c0,3.072-1.325,5.839-3.435,7.761c4.988,0.811,8.81,5.149,8.81,10.364	c0,5.603-4.411,10.194-9.942,10.485C83.352,61.903,85,64.95,85,68.375c0,5.79-4.71,10.5-10.5,10.5c-3.43,0-6.517-1.633-8.444-4.25	h-0.931c-3.584,0-6.5-2.916-6.5-6.5V57.972c-1.859,3.367-4.801,6.064-8.359,7.608V83.5c0,3.584-2.916,6.5-6.5,6.5H37.438z"></path><rect width="23.2" height="3" x="52.8" y="48" fill="#40396e"></rect><circle cx="80.5" cy="49.5" r="4" fill="#d84178"></circle><path fill="#40396e" d="M80.5,55c-3.032,0-5.5-2.468-5.5-5.5c0-3.033,2.468-5.5,5.5-5.5s5.5,2.467,5.5,5.5 C86,52.532,83.532,55,80.5,55z M80.5,47c-1.379,0-2.5,1.122-2.5,2.5s1.121,2.5,2.5,2.5s2.5-1.122,2.5-2.5S81.879,47,80.5,47z"></path><circle cx="74.875" cy="31.5" r="4" fill="#ffc571"></circle><path fill="#40396e" d="M74.875,37c-3.032,0-5.5-2.467-5.5-5.5s2.468-5.5,5.5-5.5s5.5,2.467,5.5,5.5S77.907,37,74.875,37z M74.875,29c-1.379,0-2.5,1.122-2.5,2.5s1.121,2.5,2.5,2.5s2.5-1.122,2.5-2.5S76.254,29,74.875,29z"></path><circle cx="74.5" cy="68" r="4" fill="#ffc571"></circle><path fill="#40396e" d="M74.5,73.5c-3.032,0-5.5-2.468-5.5-5.5s2.468-5.5,5.5-5.5S80,64.968,80,68S77.532,73.5,74.5,73.5z M74.5,65.5c-1.379,0-2.5,1.121-2.5,2.5s1.121,2.5,2.5,2.5S77,69.379,77,68S75.879,65.5,74.5,65.5z"></path><path fill="#707cc0" d="M43.891,15.604h-6.328l-1.554,7.234c-1.789,0.539-3.504,1.252-5.122,2.121l-6.345-4.24l-9.301,9.301	l4.24,6.345c-0.87,1.618-1.582,3.332-2.122,5.122l-7.234,1.554v13.021l7.234,1.554c0.539,1.789,1.252,3.504,2.122,5.122l-4.24,6.345	l9.301,9.301l6.345-4.24c1.618,0.87,3.332,1.582,5.122,2.121l1.554,7.234h6.328V15.604z"></path><path fill="#707cc0" d="M43.891,76.055c-14.555-0.099-26.325-11.924-26.325-26.503c0-14.578,11.77-26.404,26.325-26.503	l0.063-7.55h-6.328l-1.617,7.339c-1.789,0.539-3.504,1.252-5.122,2.121l-6.345-4.24l-9.301,9.301l4.24,6.345	c-0.87,1.618-1.582,3.332-2.122,5.122l-7.234,1.554v13.021l7.234,1.554c0.539,1.789,1.252,3.504,2.122,5.122l-4.24,6.345	l9.301,9.301l6.345-4.24c1.618,0.87,3.332,1.582,5.122,2.121l1.554,7.234h6.328V76.055z"></path><path fill="#40396e" d="M62,48.5h-3v-17c0-0.829,0.672-1.5,1.5-1.5h10.375v3H62V48.5z"></path><path fill="#40396e" d="M70.5,69.5H65c-0.828,0-1.5-0.672-1.5-1.5V49.875h3V66.5h4V69.5z"></path><path fill="#9aa2e6" d="M42.625,68.5c-10.493,0-19-8.507-19-19s8.507-19,19-19"></path><circle cx="43.451" cy="49.552" r="10.076" fill="#707cc0"></circle><circle cx="43.5" cy="49.5" r="4.5" fill="#96c362"></circle><path fill="#40396e" d="M43.766,85h-6.328c-0.707,0-1.318-0.493-1.466-1.185l-1.372-6.385	c-1.281-0.429-2.533-0.947-3.74-1.547l-5.609,3.748c-0.596,0.398-1.387,0.319-1.894-0.187l-9.301-9.301	c-0.506-0.506-0.584-1.299-0.187-1.894l3.749-5.609c-0.601-1.207-1.119-2.46-1.548-3.74l-6.384-1.372	C8.994,57.381,8.5,56.77,8.5,56.063V43.042c0-0.707,0.494-1.318,1.185-1.466l6.384-1.372c0.429-1.282,0.948-2.534,1.548-3.74	l-3.749-5.609c-0.398-0.595-0.32-1.388,0.187-1.894l9.301-9.301c0.505-0.506,1.298-0.584,1.894-0.187l5.609,3.749	c1.208-0.601,2.461-1.12,3.745-1.55l1.431-6.494C36.187,14.49,36.796,14,37.5,14h6.328c0.4,0,0.783,0.16,1.065,0.444	c0.282,0.284,0.438,0.668,0.435,1.068l-0.063,7.55v14.179c6.011,0.931,10.533,6.086,10.533,12.312s-4.522,11.38-10.533,12.311V83.5	C45.266,84.328,44.594,85,43.766,85z M38.649,82h3.616V60.504c0-0.805,0.636-1.467,1.44-1.499c5.099-0.203,9.093-4.355,9.093-9.452	c0-5.097-3.994-9.25-9.093-9.453c-0.804-0.032-1.44-0.694-1.44-1.499L42.315,17h-3.61l-1.358,6.161	c-0.117,0.531-0.512,0.957-1.032,1.113c-1.679,0.506-3.309,1.182-4.845,2.007c-0.487,0.262-1.082,0.234-1.543-0.074l-5.322-3.556	l-7.56,7.56l3.556,5.322c0.308,0.461,0.337,1.055,0.074,1.543c-0.826,1.536-1.5,3.166-2.006,4.844	c-0.157,0.523-0.587,0.919-1.121,1.034l-6.049,1.3v10.597l6.049,1.3c0.534,0.115,0.964,0.511,1.121,1.034	c0.505,1.677,1.181,3.307,2.006,4.845c0.263,0.489,0.234,1.082-0.074,1.543l-3.556,5.321l7.56,7.56l5.322-3.556	c0.462-0.309,1.055-0.336,1.543-0.074c1.538,0.826,3.168,1.501,4.844,2.006c0.523,0.158,0.919,0.587,1.034,1.121L38.649,82z"></path>
</svg>