<svg width="481" height="550" viewBox="0 0 481 550" fill="none" xmlns="http://www.w3.org/2000/svg">
<rect x="-14" width="495" height="550" rx="35.75" fill="#1A0E01"/>
<path d="M20.056 101V74.3959H26.824L33.988 94.5559L41.08 74.3959H47.848V101H42.916V81.0559L35.968 101H31.936L24.988 81.0559V101H20.056ZM62.1063 80.5879C67.9023 80.5879 72.6183 85.3039 72.6183 91.0639C72.6183 96.7879 67.8663 101.468 62.0343 101.468C56.1663 101.468 51.4143 96.7879 51.4143 91.0639C51.4143 85.2319 56.1303 80.5879 62.1063 80.5879ZM61.9263 84.9799C58.8303 84.9799 56.2383 87.7159 56.2383 91.0279C56.2383 94.3759 58.8303 97.0759 61.9983 97.0759C65.2023 97.0759 67.7943 94.3759 67.7943 91.0639C67.7943 87.6439 65.2023 84.9799 61.9263 84.9799ZM85.3454 85.2679C82.2494 85.2679 79.6574 87.8959 79.6574 91.1359C79.6574 94.4839 82.2494 97.0759 85.4174 97.0759C88.6214 97.0759 91.2134 94.4839 91.2134 91.1719C91.2134 87.8599 88.6214 85.2679 85.3454 85.2679ZM85.4894 80.9839C91.2854 80.9839 96.0374 85.5199 96.0374 91.1719C96.0374 96.8959 91.2854 101.468 85.4534 101.468C81.9254 101.468 78.6134 99.9199 76.7054 96.7879C75.0854 94.1239 75.0134 90.1279 75.0134 86.0599C75.0134 78.0319 78.5414 73.6039 86.0294 73.0279L94.7054 72.3439V76.6279L86.2094 77.3479C81.0614 77.7799 78.6134 80.2279 78.5774 84.7639L78.6494 84.7999C79.4414 83.2519 82.0694 80.9839 85.4894 80.9839ZM112.683 81.0559H117.543V101H112.791V87.8239L103.863 101H99.0026V81.0559H103.755V94.2319L112.683 81.0559ZM139.972 101H134.86L129.784 87.7519L124.708 101H119.596L127.912 81.0559H131.656L139.972 101ZM146.822 92.2519V96.6439H150.494C151.934 96.6439 152.906 95.7079 152.906 94.4479C152.906 93.1879 151.934 92.2519 150.494 92.2519H146.822ZM150.818 87.8959C154.958 87.8959 157.73 90.9199 157.73 94.4479C157.73 97.9759 154.958 101 150.818 101H142.034V81.0559H146.822V87.8959H150.818ZM178.816 101H174.028V93.1159H165.244V101H160.456V81.0559H165.244V88.7599H174.028V81.0559H178.816V101ZM202.834 81.0559V101H198.442V98.4079C196.534 100.604 194.626 101.468 191.818 101.468C185.986 101.468 181.774 97.1119 181.774 91.0999C181.774 85.0159 186.022 80.5879 191.926 80.5879C194.806 80.5879 196.786 81.5239 198.442 83.7199V81.0559H202.834ZM192.358 84.9799C189.01 84.9799 186.598 87.6079 186.598 91.2079C186.598 94.6999 189.01 97.0759 192.502 97.0759C195.958 97.0759 198.298 94.6639 198.298 91.0999C198.298 87.4999 195.85 84.9799 192.358 84.9799ZM216.513 89.7319V85.4119H213.381C211.941 85.4119 210.969 86.3119 210.969 87.5719C210.969 88.8319 211.941 89.7319 213.381 89.7319H216.513ZM210.429 93.6559C207.801 92.6839 206.145 90.2719 206.145 87.5719C206.145 84.0439 208.917 81.0559 213.057 81.0559H221.301V101H216.513V94.0879H215.361L211.149 101H205.389L210.429 93.6559ZM235.268 107.66V81.0559H239.66V83.3959C241.208 81.5599 243.512 80.5879 246.212 80.5879C251.972 80.5879 256.148 84.9439 256.148 90.9559C256.148 97.0039 251.936 101.468 246.176 101.468C243.728 101.468 241.892 100.748 240.056 99.1279V107.66H235.268ZM245.492 84.9799C242.252 84.9799 239.768 87.6079 239.768 91.0999C239.768 94.4839 242.324 97.0759 245.636 97.0759C248.84 97.0759 251.324 94.4479 251.324 91.0639C251.324 87.5719 248.876 84.9799 245.492 84.9799ZM279.228 81.0559V101H274.836V98.4079C272.928 100.604 271.02 101.468 268.212 101.468C262.38 101.468 258.168 97.1119 258.168 91.0999C258.168 85.0159 262.416 80.5879 268.32 80.5879C271.2 80.5879 273.18 81.5239 274.836 83.7199V81.0559H279.228ZM268.752 84.9799C265.404 84.9799 262.992 87.6079 262.992 91.2079C262.992 94.6999 265.404 97.0759 268.896 97.0759C272.352 97.0759 274.692 94.6639 274.692 91.0999C274.692 87.4999 272.244 84.9799 268.752 84.9799ZM288.3 92.2519V89.0839C290.676 89.0839 291.864 88.5439 291.864 86.8519C291.864 85.8079 290.892 84.9079 289.632 84.9079C288.264 84.9079 287.4 85.7719 287.184 86.8519H282.684C282.936 83.2879 285.816 80.5519 289.632 80.5519C293.448 80.5519 296.508 83.3599 296.508 86.8519C296.508 88.4359 295.428 90.0919 293.664 90.4879V90.5239C295.644 91.0279 297.228 92.8279 297.228 94.6999C297.228 98.4439 293.808 101.468 289.632 101.468C285.456 101.468 282.288 98.3719 282.036 94.6999H286.788C286.932 96.0679 288.084 97.0759 289.632 97.0759C291.18 97.0759 292.404 96.0319 292.404 94.6999C292.404 92.5399 290.712 92.2879 288.3 92.2519ZM300.307 107.66V81.0559H304.699V83.3959C306.247 81.5599 308.551 80.5879 311.251 80.5879C317.011 80.5879 321.187 84.9439 321.187 90.9559C321.187 97.0039 316.975 101.468 311.215 101.468C308.767 101.468 306.931 100.748 305.095 99.1279V107.66H300.307ZM310.531 84.9799C307.291 84.9799 304.807 87.6079 304.807 91.0999C304.807 94.4839 307.363 97.0759 310.675 97.0759C313.879 97.0759 316.363 94.4479 316.363 91.0639C316.363 87.5719 313.915 84.9799 310.531 84.9799ZM344.267 81.0559V101H339.875V98.4079C337.967 100.604 336.059 101.468 333.251 101.468C327.419 101.468 323.207 97.1119 323.207 91.0999C323.207 85.0159 327.455 80.5879 333.359 80.5879C336.239 80.5879 338.219 81.5239 339.875 83.7199V81.0559H344.267ZM333.791 84.9799C330.443 84.9799 328.031 87.6079 328.031 91.2079C328.031 94.6999 330.443 97.0759 333.935 97.0759C337.391 97.0759 339.731 94.6639 339.731 91.0999C339.731 87.4999 337.283 84.9799 333.791 84.9799ZM357.947 85.2679C354.851 85.2679 352.259 87.8959 352.259 91.1359C352.259 94.4839 354.851 97.0759 358.019 97.0759C361.223 97.0759 363.815 94.4839 363.815 91.1719C363.815 87.8599 361.223 85.2679 357.947 85.2679ZM358.091 80.9839C363.887 80.9839 368.639 85.5199 368.639 91.1719C368.639 96.8959 363.887 101.468 358.055 101.468C354.527 101.468 351.215 99.9199 349.307 96.7879C347.687 94.1239 347.615 90.1279 347.615 86.0599C347.615 78.0319 351.143 73.6039 358.631 73.0279L367.307 72.3439V76.6279L358.811 77.3479C353.663 77.7799 351.215 80.2279 351.179 84.7639L351.251 84.7999C352.043 83.2519 354.671 80.9839 358.091 80.9839ZM381.36 80.5879C387.156 80.5879 391.872 85.3039 391.872 91.0639C391.872 96.7879 387.12 101.468 381.288 101.468C375.42 101.468 370.668 96.7879 370.668 91.0639C370.668 85.2319 375.384 80.5879 381.36 80.5879ZM381.18 84.9799C378.084 84.9799 375.492 87.7159 375.492 91.0279C375.492 94.3759 378.084 97.0759 381.252 97.0759C384.456 97.0759 387.048 94.3759 387.048 91.0639C387.048 87.6439 384.456 84.9799 381.18 84.9799ZM407.165 85.4119H402.521V101H397.733V85.4119H393.089V81.0559H407.165V85.4119ZM409.749 101V81.0559H414.537V90.2359L421.449 81.0559H427.245L419.289 90.9559L427.677 101H421.449L414.537 91.8199V101H409.749ZM448.365 81.0559V101H443.973V98.4079C442.065 100.604 440.157 101.468 437.349 101.468C431.517 101.468 427.305 97.1119 427.305 91.0999C427.305 85.0159 431.553 80.5879 437.457 80.5879C440.337 80.5879 442.317 81.5239 443.973 83.7199V81.0559H448.365ZM437.889 84.9799C434.541 84.9799 432.129 87.6079 432.129 91.2079C432.129 94.6999 434.541 97.0759 438.033 97.0759C441.489 97.0759 443.829 94.6639 443.829 91.0999C443.829 87.4999 441.381 84.9799 437.889 84.9799Z" fill="white"/>
<path d="M267.25 412.65V457.65C267.25 470.025 257.125 480.15 244.75 480.15H132.25C119.875 480.15 109.75 470.025 109.75 457.65V210.15C109.75 197.775 119.875 187.65 132.25 187.65H244.75C257.125 187.65 267.25 197.775 267.25 210.15V232.65" stroke="white" stroke-width="22.5" stroke-miterlimit="10" stroke-linecap="round" stroke-linejoin="round"/>
<path d="M109.75 232.65H267.25" stroke="white" stroke-width="22.5" stroke-miterlimit="10" stroke-linecap="round" stroke-linejoin="round"/>
<path d="M109.75 412.65H267.25" stroke="white" stroke-width="22.5" stroke-miterlimit="10" stroke-linecap="round" stroke-linejoin="round"/>
<path d="M177.25 446.4H199.75" stroke="white" stroke-width="22.5" stroke-miterlimit="10" stroke-linecap="round" stroke-linejoin="round"/>
<path d="M211 288.9L177.25 322.65L211 356.4" stroke="white" stroke-width="22.5" stroke-miterlimit="10" stroke-linecap="round" stroke-linejoin="round"/>
<path d="M323.5 288.9L357.25 322.65L323.5 356.4" stroke="white" stroke-width="22.5" stroke-miterlimit="10" stroke-linecap="round" stroke-linejoin="round"/>
<path d="M289.75 277.65L244.75 367.65" stroke="white" stroke-width="22.5" stroke-miterlimit="10" stroke-linecap="round" stroke-linejoin="round"/>
</svg>
