<svg width="595" height="700" viewBox="0 0 595 700" fill="none" xmlns="http://www.w3.org/2000/svg">
<rect width="595" height="700" rx="38.9349" fill="#1A0E01"/>
<path d="M51.699 150.744V108.298H60.4293C66.9196 108.298 69.5616 108.815 72.1462 110.538C75.0755 112.491 76.7411 115.765 76.7411 119.613C76.7411 123.634 75.4201 125.816 72.0314 127.597C74.8457 128.746 76.1093 129.607 77.3155 131.273C78.579 132.996 79.2683 135.466 79.2683 138.108C79.2683 142.588 77.1431 146.436 73.4672 148.561C70.8826 150.054 67.5514 150.744 63.0139 150.744H51.699ZM59.5678 143.219H63.4734C68.9872 143.219 71.3421 141.611 71.3421 137.878C71.3421 134.145 68.7575 132.364 63.3011 132.364H59.5678V143.219ZM59.5678 124.668H62.0949C66.8621 124.668 68.8724 123.347 68.8724 120.303C68.8724 117.373 66.8621 115.995 62.7842 115.995H59.5678V124.668ZM115.85 138.223H91.21C92.129 142.071 95.4603 144.483 99.9977 144.483C103.157 144.483 105.052 143.622 107.005 141.324H115.333C114.816 142.932 114.012 144.253 112.806 145.747C109.475 149.652 105.397 151.49 100.17 151.49C90.4633 151.49 82.9392 144.253 82.9392 134.949C82.9392 125.587 90.3485 118.177 99.7105 118.177C109.187 118.177 116.137 125.414 116.137 135.293C116.137 136.442 116.08 137.131 115.85 138.223ZM90.9803 131.503H108.613C107.637 127.425 104.535 125.185 99.8254 125.185C95.288 125.185 92.1864 127.367 90.9803 131.503ZM136.457 125.644C131.518 125.644 127.383 129.837 127.383 135.006C127.383 140.348 131.518 144.483 136.572 144.483C141.684 144.483 145.819 140.348 145.819 135.064C145.819 129.779 141.684 125.644 136.457 125.644ZM136.687 118.809C145.934 118.809 153.516 126.046 153.516 135.064C153.516 144.196 145.934 151.49 136.63 151.49C131.001 151.49 125.717 149.021 122.673 144.024C120.088 139.773 119.973 133.398 119.973 126.908C119.973 114.099 125.602 107.035 137.549 106.116L151.391 105.025V111.859L137.836 113.008C129.623 113.697 125.717 117.603 125.659 124.84L125.774 124.897C127.038 122.428 131.231 118.809 136.687 118.809ZM174.344 161.369V118.924H181.352V122.657C183.821 119.728 187.497 118.177 191.805 118.177C200.995 118.177 207.657 125.127 207.657 134.719C207.657 144.368 200.937 151.49 191.748 151.49C187.842 151.49 184.913 150.342 181.983 147.757V161.369H174.344ZM190.656 125.185C185.487 125.185 181.524 129.377 181.524 134.949C181.524 140.348 185.602 144.483 190.886 144.483C195.998 144.483 199.961 140.29 199.961 134.891C199.961 129.32 196.055 125.185 190.656 125.185ZM244.48 118.924V150.744H237.473V146.608C234.429 150.112 231.385 151.49 226.905 151.49C217.6 151.49 210.88 144.541 210.88 134.949C210.88 125.242 217.657 118.177 227.077 118.177C231.672 118.177 234.831 119.671 237.473 123.174V118.924H244.48ZM227.766 125.185C222.425 125.185 218.576 129.377 218.576 135.121C218.576 140.692 222.425 144.483 227.996 144.483C233.51 144.483 237.243 140.635 237.243 134.949C237.243 129.205 233.337 125.185 227.766 125.185ZM258.953 136.787V131.732C262.744 131.732 264.639 130.871 264.639 128.171C264.639 126.506 263.089 125.07 261.078 125.07C258.896 125.07 257.517 126.448 257.173 128.171H249.993C250.395 122.485 254.99 118.12 261.078 118.12C267.167 118.12 272.049 122.6 272.049 128.171C272.049 130.698 270.326 133.341 267.511 133.972V134.03C270.67 134.834 273.197 137.706 273.197 140.692C273.197 146.666 267.741 151.49 261.078 151.49C254.416 151.49 249.362 146.551 248.959 140.692H256.541C256.771 142.875 258.609 144.483 261.078 144.483C263.548 144.483 265.501 142.817 265.501 140.692C265.501 137.246 262.802 136.844 258.953 136.787ZM278.11 161.369V118.924H285.118V122.657C287.587 119.728 291.263 118.177 295.571 118.177C304.761 118.177 311.423 125.127 311.423 134.719C311.423 144.368 304.703 151.49 295.514 151.49C291.608 151.49 288.679 150.342 285.749 147.757V161.369H278.11ZM294.422 125.185C289.253 125.185 285.29 129.377 285.29 134.949C285.29 140.348 289.368 144.483 294.652 144.483C299.764 144.483 303.727 140.29 303.727 134.891C303.727 129.32 299.821 125.185 294.422 125.185ZM348.246 118.924V150.744H341.239V146.608C338.195 150.112 335.151 151.49 330.671 151.49C321.366 151.49 314.646 144.541 314.646 134.949C314.646 125.242 321.423 118.177 330.843 118.177C335.438 118.177 338.597 119.671 341.239 123.174V118.924H348.246ZM331.532 125.185C326.191 125.185 322.342 129.377 322.342 135.121C322.342 140.692 326.191 144.483 331.762 144.483C337.276 144.483 341.009 140.635 341.009 134.949C341.009 129.205 337.103 125.185 331.532 125.185ZM370.071 125.644C365.132 125.644 360.996 129.837 360.996 135.006C360.996 140.348 365.132 144.483 370.186 144.483C375.298 144.483 379.433 140.348 379.433 135.064C379.433 129.779 375.298 125.644 370.071 125.644ZM370.301 118.809C379.548 118.809 387.13 126.046 387.13 135.064C387.13 144.196 379.548 151.49 370.243 151.49C364.615 151.49 359.331 149.021 356.287 144.024C353.702 139.773 353.587 133.398 353.587 126.908C353.587 114.099 359.216 107.035 371.162 106.116L385.004 105.025V111.859L371.45 113.008C363.236 113.697 359.331 117.603 359.273 124.84L359.388 124.897C360.652 122.428 364.844 118.809 370.301 118.809ZM407.426 118.177C416.673 118.177 424.197 125.702 424.197 134.891C424.197 144.024 416.615 151.49 407.311 151.49C397.949 151.49 390.367 144.024 390.367 134.891C390.367 125.587 397.891 118.177 407.426 118.177ZM407.138 125.185C402.199 125.185 398.064 129.55 398.064 134.834C398.064 140.175 402.199 144.483 407.253 144.483C412.365 144.483 416.5 140.175 416.5 134.891C416.5 129.435 412.365 125.185 407.138 125.185ZM448.596 125.874H441.187V150.744H433.548V125.874H426.139V118.924H448.596V125.874ZM477.186 118.924V150.744H469.547V139.314C466.56 139.888 464.837 140.061 462.539 140.061C455.704 140.061 451.627 135.695 451.627 128.171V118.924H459.266V128.171C459.266 132.019 460.414 133.111 464.55 133.111C466.388 133.111 467.938 132.938 469.547 132.594V118.924H477.186ZM505.225 118.924H512.978V150.744H505.397V129.722L491.153 150.744H483.399V118.924H490.98V139.946L505.225 118.924ZM519.184 150.744V118.924H526.823V133.57L537.851 118.924H547.098L534.405 134.719L547.787 150.744H537.851L526.823 136.097V150.744H519.184Z" fill="white"/>
<g clip-path="url(#clip0_759_360)">
<path d="M385.134 582.933C382.808 581.518 380.782 579.621 379.172 577.323C378.428 576.263 377.8 575.142 377.28 573.983H113.066V313.56H471.698V483.607C479.354 484.299 485.778 489.327 488.475 496.213C490.864 494.904 493.525 494.095 496.323 493.848C498.215 493.684 500.095 493.801 501.918 494.162V248.683C501.918 234.796 490.622 223.499 476.736 223.499H108.029C94.1435 223.499 82.8457 234.796 82.8457 248.683V579.022C82.8457 592.909 94.1435 604.205 108.029 604.205H382.838C380.694 599.863 380.185 594.96 381.447 590.244C382.175 587.531 383.434 585.056 385.134 582.933ZM444.043 265.789C444.043 260.653 448.206 256.489 453.341 256.489H462.64C467.776 256.489 471.938 260.652 471.938 265.789V276.328C471.938 281.463 467.775 285.626 462.64 285.626H453.341C448.205 285.626 444.043 281.463 444.043 276.328V265.789ZM400.804 265.789C400.804 260.653 404.967 256.489 410.102 256.489H419.402C424.539 256.489 428.701 260.652 428.701 265.789V276.328C428.701 281.463 424.538 285.626 419.402 285.626H410.102C404.967 285.626 400.804 281.463 400.804 276.328V265.789ZM357.564 265.789C357.564 260.653 361.728 256.489 366.862 256.489H376.161C381.297 256.489 385.461 260.652 385.461 265.789V276.328C385.461 281.463 381.297 285.626 376.161 285.626H366.862C361.728 285.626 357.564 281.463 357.564 276.328V265.789Z" fill="white"/>
<path d="M531.504 565.197L528.71 549.351C528.332 547.217 526.299 545.792 524.163 546.168L510.071 548.651C508.379 544.681 506.219 540.963 503.654 537.559L512.859 526.587C513.528 525.792 513.854 524.761 513.764 523.724C513.672 522.686 513.172 521.729 512.375 521.059L500.05 510.715C499.253 510.046 498.22 509.721 497.183 509.812C496.145 509.903 495.188 510.402 494.519 511.199L485.323 522.163C481.548 520.239 477.51 518.756 473.28 517.777V503.467C473.28 501.3 471.522 499.541 469.355 499.541H453.262C451.096 499.541 449.338 501.3 449.338 503.467V517.777C445.105 518.755 441.071 520.239 437.294 522.163L428.096 511.2C426.702 509.54 424.228 509.324 422.566 510.716L410.24 521.059C409.443 521.729 408.944 522.686 408.852 523.724C408.763 524.761 409.087 525.794 409.756 526.591L418.962 537.56C416.402 540.963 414.237 544.683 412.545 548.652L398.453 546.168C396.322 545.793 394.285 547.217 393.906 549.351L391.113 565.197C390.933 566.222 391.167 567.276 391.762 568.13C392.361 568.983 393.269 569.564 394.294 569.744L408.397 572.23C408.627 576.599 409.388 580.826 410.612 584.851L398.217 592.005C397.315 592.524 396.658 593.383 396.388 594.387C396.118 595.393 396.26 596.463 396.78 597.365L404.825 611.3C405.343 612.202 406.202 612.859 407.207 613.128C407.541 613.218 407.882 613.262 408.223 613.262C408.906 613.262 409.582 613.085 410.185 612.736L422.59 605.574C425.507 608.699 428.8 611.469 432.399 613.811L427.501 627.268C427.146 628.246 427.192 629.326 427.632 630.269C428.072 631.213 428.868 631.942 429.846 632.297L444.964 637.799C445.398 637.957 445.853 638.038 446.307 638.038C446.874 638.038 447.443 637.916 447.968 637.67C448.911 637.231 449.639 636.434 449.995 635.455L454.892 621.998C456.992 622.253 459.129 622.384 461.297 622.384C463.465 622.384 465.602 622.251 467.702 621.998L472.6 635.455C472.955 636.434 473.686 637.231 474.627 637.67C475.151 637.915 475.718 638.038 476.287 638.038C476.741 638.038 477.196 637.959 477.63 637.799L492.75 632.297C493.725 631.942 494.522 631.21 494.962 630.269C495.402 629.326 495.449 628.246 495.093 627.268L490.195 613.813C493.79 611.471 497.084 608.699 500.004 605.576L512.409 612.738C513.01 613.085 513.688 613.264 514.371 613.264C514.71 613.264 515.055 613.218 515.387 613.131C516.392 612.861 517.249 612.202 517.769 611.302L525.814 597.365C526.333 596.465 526.475 595.393 526.206 594.387C525.936 593.385 525.278 592.526 524.377 592.005L511.984 584.853C513.208 580.827 513.967 576.6 514.197 572.232L528.299 569.745C529.325 569.565 530.235 568.984 530.832 568.131C531.45 567.276 531.684 566.222 531.504 565.197ZM461.31 590.379C449.39 590.379 439.725 580.714 439.725 568.793C439.725 556.872 449.391 547.208 461.31 547.208C473.23 547.208 482.895 556.872 482.895 568.793C482.895 580.714 473.23 590.379 461.31 590.379Z" fill="white"/>
<path d="M258.829 457.918C258.829 452.84 255.853 448.176 251.247 446.037L209.087 426.448L251.248 406.857C255.853 404.716 258.829 400.053 258.829 394.977V394.636C258.829 390.138 256.565 386.008 252.776 383.594C250.679 382.255 248.238 381.547 245.717 381.547C243.817 381.547 241.91 381.964 240.203 382.757L172.801 414.101C168.197 416.243 165.223 420.906 165.223 425.98V426.917C165.223 431.985 168.196 436.645 172.802 438.798L240.211 470.145C241.954 470.951 243.81 471.361 245.727 471.361C248.225 471.361 250.659 470.651 252.776 469.305C256.567 466.881 258.83 462.754 258.83 458.261L258.829 457.918Z" fill="white"/>
<path d="M325.332 349.609C322.874 346.243 318.919 344.234 314.753 344.234H314.417C308.696 344.234 303.68 347.894 301.937 353.334L257.528 490.933C256.264 494.906 256.976 499.282 259.432 502.647C261.89 506.01 265.845 508.02 270.011 508.02H270.348C276.067 508.02 281.079 504.36 282.82 498.921L327.224 361.332C328.5 357.362 327.792 352.98 325.332 349.609Z" fill="white"/>
<path d="M411.959 414.1L344.555 382.756C342.854 381.965 340.95 381.548 339.05 381.548C336.531 381.548 334.088 382.254 331.992 383.591C328.197 386.009 325.933 390.138 325.933 394.636V394.977C325.933 400.049 328.906 404.713 333.516 406.863L375.675 426.449L333.515 446.037C328.909 448.176 325.933 452.84 325.933 457.918V458.261C325.933 462.754 328.197 466.88 331.99 469.306C334.1 470.65 336.536 471.36 339.037 471.36C340.952 471.36 342.806 470.951 344.561 470.141L411.967 438.794C416.569 436.647 419.541 431.986 419.541 426.918V425.981C419.538 420.906 416.564 416.242 411.959 414.1Z" fill="white"/>
</g>
<defs>
<clipPath id="clip0_759_360">
<rect width="448.718" height="448.718" fill="white" transform="translate(82.8457 206.41)"/>
</clipPath>
</defs>
</svg>
